<?xml version="1.0" standalone="no"?>
<!DOCTYPE svg PUBLIC "-//W3C//DTD SVG 1.1//EN" "http://www.w3.org/Graphics/SVG/1.1/DTD/svg11.dtd" >
<svg xmlns="http://www.w3.org/2000/svg">
<metadata>
This is a custom SVG webfont generated by Font Squirrel.
Copyright   : Copyright 19901999 as an unpublished work by Bitstream Inc  All rights reserved  Confidential
</metadata>
<defs>
<font id="GeometricSlabserif703Light" horiz-adv-x="1024" >
<font-face units-per-em="2048" ascent="1638" descent="-410" />
<missing-glyph horiz-adv-x="524" />
<glyph unicode=" "  horiz-adv-x="524" />
<glyph unicode="&#x09;" horiz-adv-x="524" />
<glyph unicode="&#xa0;" horiz-adv-x="524" />
<glyph unicode="!" horiz-adv-x="524" d="M154 82q0 45 31.5 76.5t76.5 31.5q47 0 78 -30.5t31 -77.5q0 -45 -31 -76t-78 -31t-77.5 31t-30.5 76zM197 1475h129l-19 -1153h-90z" />
<glyph unicode="&#x22;" horiz-adv-x="550" d="M100 881v553h86v-553h-86zM365 881v553h86v-553h-86z" />
<glyph unicode="#" horiz-adv-x="1574" d="M129 494l31 90h336l100 282h-360l28 90h365l176 498h110l-174 -498h271l176 498h110l-174 -498h322l-31 -90h-323l-101 -282h348l-30 -90h-351l-174 -494h-112l176 494h-270l-179 -494h-110l174 494h-334zM610 584h269l100 282h-270z" />
<glyph unicode="$" horiz-adv-x="1048" d="M70 0v489h86q43 -180 127 -281.5t198 -115.5v604q-379 80 -379 365q0 150 103.5 245t275.5 97v100h82v-102q178 -41 268 -178l-2 176h89v-381h-80q-63 227 -275 287v-521q428 -92 428 -415q0 -156 -119.5 -265.5t-308.5 -111.5v-170h-82v170q-203 33 -325 248l2 -240h-88 zM207 1065q0 -209 274 -262v510q-125 -2 -199.5 -72t-74.5 -176zM563 86q139 2 231.5 85t92.5 198q0 233 -324 307v-590z" />
<glyph unicode="%" horiz-adv-x="1671" d="M72 1104q0 141 96 236.5t235.5 95.5t235.5 -95.5t96 -236.5t-96 -236.5t-235.5 -95.5t-235.5 95.5t-96 236.5zM172 1104q0 -100 67.5 -167t164 -67t164 67t67.5 167t-66.5 166.5t-165.5 66.5q-96 0 -163.5 -66.5t-67.5 -166.5zM309 -29l957 1493h100l-958 -1493h-99z M936 331.5q0 141.5 96 237t235.5 95.5t235.5 -95.5t96 -237t-96 -236.5t-235.5 -95t-235.5 95t-96 236.5zM1036 331.5q0 -98.5 67.5 -166t164 -67.5t164 67.5t67.5 166.5q0 100 -66.5 166.5t-164.5 66.5q-96 0 -164 -67.5t-68 -166z" />
<glyph unicode="&#x26;" horiz-adv-x="1335" d="M84 311q0 115 78 224.5t244 246.5q-188 213 -189 418q0 141 80 222t217 81t216 -80t79 -219q0 -106 -60.5 -206.5t-187.5 -217.5l334 -368q133 168 186 379h-123v100h371v-100h-135q-63 -252 -227 -467l207 -224h155v-100h-213l-219 238q-231 -266 -463 -267 q-152 0 -251 97.5t-99 242.5zM205 322q0 -102 67.5 -172t165.5 -70q197 0 385 235l-346 396q-143 -133 -207.5 -219t-64.5 -170zM334 1198q0 -174 158 -350q203 203 202 362q0 90 -46 141.5t-124 51.5q-92 0 -141 -52.5t-49 -152.5z" />
<glyph unicode="'" horiz-adv-x="284" d="M100 881v553h86v-553h-86z" />
<glyph unicode="(" horiz-adv-x="630" d="M141 641q0 463 314 862l84 -65q-285 -391 -285 -796.5t285 -797.5l-84 -63q-314 399 -314 860z" />
<glyph unicode=")" horiz-adv-x="630" d="M90 -156q287 395 287 796.5t-287 797.5l86 65q313 -399 313 -862q0 -461 -313 -860z" />
<glyph unicode="*" d="M217 1276l35 88l221 -94l-4 233h94l-6 -233l215 94l33 -88l-230 -82l160 -170l-73 -63l-150 180l-150 -180l-71 63l160 170z" />
<glyph unicode="+" horiz-adv-x="1705" d="M254 569v80h559v570h80v-570h559v-80h-559v-569h-80v569h-559z" />
<glyph unicode="," horiz-adv-x="524" d="M78 -217l133 434h115l-133 -434h-115z" />
<glyph unicode="-" horiz-adv-x="634" d="M68 420v102h501v-102h-501z" />
<glyph unicode="." horiz-adv-x="524" d="M154 82q0 45 31.5 76.5t76.5 31.5q47 0 78 -30.5t31 -77.5q0 -45 -31 -76t-78 -31t-77.5 31t-30.5 76z" />
<glyph unicode="/" horiz-adv-x="577" d="M31 -190l526 1693h92l-526 -1693h-92z" />
<glyph unicode="0" horiz-adv-x="1048" d="M104 537v364q0 246 62 356q117 207 358.5 207t358.5 -207q39 -70 49 -148.5t10 -207.5v-364q0 -86 -2 -135.5t-16.5 -111t-40.5 -110.5q-119 -209 -358.5 -209t-358.5 209q-62 111 -62 357zM219 518q0 -209 43 -291q86 -156 262 -155.5t262 155.5q43 82 43 291v400 q0 211 -43 290q-86 158 -262 158t-262 -158q-43 -80 -43 -290v-400z" />
<glyph unicode="1" horiz-adv-x="1048" d="M309 0v94h180v1247h-167v95h282v-1342h174v-94h-469z" />
<glyph unicode="2" horiz-adv-x="1048" d="M92 0v96q82 98 200 236.5t178 210t136 169t111 156t60.5 123t25.5 117.5q0 119 -77 189.5t-206 70.5q-150 0 -231.5 -103.5t-81.5 -299.5v-21h-105q-2 18 -2 53q0 217 114 342t310 125q174 0 284 -97t110 -249q0 -104 -86.5 -252.5t-183.5 -268.5t-339 -398 q-59 -68 -90 -105h619v266h110v-360h-856z" />
<glyph unicode="3" horiz-adv-x="1048" d="M100 397v15h105q4 -156 90 -248t223 -92q131 0 221 88t90 221q0 141 -94 229t-250 88q-4 0 -19 -1t-24 -1v95q178 2 277.5 80.5t99.5 213.5q0 127 -78.5 203t-212.5 76q-137 0 -213.5 -84t-83.5 -244h-100v4q0 195 110.5 309.5t297.5 114.5q174 0 284.5 -107.5 t110.5 -271.5q0 -125 -75 -216t-204 -119q131 -25 210 -124.5t79 -238.5q0 -174 -121 -295t-295 -121q-195 0 -311.5 115.5t-116.5 310.5z" />
<glyph unicode="4" horiz-adv-x="1048" d="M63 393v94l607 949h90v-951h178v-92h-178v-299h178v-94h-469v94h178v299h-584zM180 485h467v523q0 88 27 268z" />
<glyph unicode="5" horiz-adv-x="1048" d="M106 387v10h105q4 -154 84 -241.5t211 -87.5q143 0 231 102t88 279q0 379 -368 378q-135 0 -262 -47v656h602v-95h-496v-440q94 23 178 23q217 0 339 -127t122 -348q0 -215 -120 -346.5t-318 -131.5q-176 0 -286 115t-110 301z" />
<glyph unicode="6" horiz-adv-x="1048" d="M111 625v221q0 303 111.5 459.5t330.5 156.5q150 0 240 -91t100 -243h-100q-37 233 -252 234q-172 0 -247 -146.5t-75 -459.5v-56q106 199 340 199q174 0 289 -130t115 -337q0 -205 -118 -333t-306 -128q-272 0 -375 236q-53 123 -53 418zM231 434q0 -170 83 -266 t225 -96q143 0 226 95t83 265q0 168 -85 265.5t-224 97.5q-143 0 -225.5 -95.5t-82.5 -265.5z" />
<glyph unicode="7" horiz-adv-x="1048" d="M164 1104v332h809l4 -95l-590 -1341h-127l594 1341h-578v-237h-112z" />
<glyph unicode="8" horiz-adv-x="1048" d="M102 381q0 133 73 232.5t198 136.5q-119 43 -182.5 134t-63.5 214q0 158 112.5 263t284.5 105t285 -104.5t113 -263.5q0 -123 -64.5 -214t-181.5 -134q125 -37 197.5 -136.5t72.5 -232.5q0 -178 -117.5 -294t-304 -116t-304.5 116t-118 294zM213 381q0 -133 89 -223 t222 -90t222.5 90t89.5 223q0 135 -89.5 225t-222.5 90t-222 -90t-89 -225zM236 1083.5q0 -122.5 82.5 -204.5t205.5 -82t206 82t83 204.5t-83 204.5t-206 82t-205.5 -82t-82.5 -204.5z" />
<glyph unicode="9" horiz-adv-x="1048" d="M84 1001q0 205 117.5 333t306.5 128q272 0 375 -235q53 -123 53 -418v-221q0 -616 -442 -617q-152 0 -243 86t-106 248h101q37 -233 248 -233q184 0 260.5 137t76.5 440q0 12 -1 41t-1 43q-106 -199 -342 -198q-174 0 -288.5 129.5t-114.5 336.5zM201 1001 q0 -168 84 -265t223 -97q143 0 225 95t82 265q0 172 -83 267.5t-224 95.5t-224 -95.5t-83 -265.5z" />
<glyph unicode=":" horiz-adv-x="524" d="M154 82q0 45 31.5 76.5t76.5 31.5q47 0 78 -30.5t31 -77.5q0 -45 -31 -76t-78 -31t-77.5 31t-30.5 76zM154 817q0 45 30.5 76t77.5 31t78 -30t31 -77q0 -45 -31 -75.5t-78 -30.5t-77.5 30.5t-30.5 75.5z" />
<glyph unicode=";" horiz-adv-x="524" d="M78 -217l133 434h115l-133 -434h-115zM154 817q0 45 30.5 76t77.5 31t78 -30t31 -77q0 -45 -31 -75.5t-78 -30.5t-77.5 30.5t-30.5 75.5z" />
<glyph unicode="&#x3c;" horiz-adv-x="1705" d="M264 580v61l1178 483v-90l-1045 -424l1045 -424v-88z" />
<glyph unicode="=" horiz-adv-x="1705" d="M254 389v80h1198v-80h-1198zM254 752v79h1198v-79h-1198z" />
<glyph unicode="&#x3e;" horiz-adv-x="1705" d="M264 98v88l1045 424l-1045 424v90l1178 -483v-61z" />
<glyph unicode="?" horiz-adv-x="1042" d="M121 1118q4 174 111.5 279.5t271.5 105.5q176 0 281.5 -109.5t105.5 -295.5q0 -166 -100.5 -276.5t-270.5 -125.5v-374h-110v471q6 0 18 -1t16 -1q160 0 249 88t89 241q0 123 -80.5 204t-201.5 81q-119 0 -193 -77t-78 -210h-108zM358 82q0 45 32 76.5t77 31.5 q47 0 77.5 -30.5t30.5 -77.5q0 -45 -30.5 -76t-77.5 -31t-78 31t-31 76z" />
<glyph unicode="@" horiz-adv-x="2048" d="M121 522q0 328 198 572q291 356 795 356q334 0 553 -168q260 -201 260 -504q0 -348 -244 -540q-139 -111 -305 -111q-193 0 -192 145q0 10 4 39q-102 -184 -291 -184q-154 0 -233.5 83t-79.5 243q0 229 135 386.5t326 157.5q195 0 256 -170l61 129h80l-137 -553 q-20 -76 -21 -108q0 -92 117 -92q98 0 203 76q100 74 161.5 205.5t61.5 283.5q0 272 -198.5 439t-526.5 167q-336 0 -569 -192q-309 -256 -310 -672q0 -326 220.5 -521.5t592.5 -195.5q338 0 623 193l29 -45q-293 -219 -648 -220q-377 0 -620 185q-301 227 -301 616z M690 446q0 -117 57.5 -181t159.5 -64q111 0 196 72.5t116 193.5l63 254q-45 203 -233 203q-152 0 -255.5 -138.5t-103.5 -339.5z" />
<glyph unicode="A" horiz-adv-x="1355" d="M-37 0v100h143l467 1274h-149v101h508v-101h-150l467 -1274h144v-100h-432v100h167l-131 361h-639l-131 -361h168v-100h-432zM397 559h561l-280 782z" />
<glyph unicode="B" horiz-adv-x="1230" d="M61 0v100h170v1274h-170v101h492q524 0 524 -363q0 -233 -254 -319q164 -39 250 -137.5t86 -241.5q0 -188 -125 -301t-332 -113h-641zM350 100h283q209 0 307 76t98 240q0 162 -99 238.5t-306 76.5h-283v-631zM350 829h193q219 0 316 59.5t97 213.5q0 145 -99 208.5 t-314 63.5h-193v-545z" />
<glyph unicode="C" horiz-adv-x="1521" d="M76 737q0 350 252 580q205 186 499 186q356 0 525 -264v236h102v-459h-92q-51 182 -192.5 284.5t-342.5 102.5q-256 0 -432 -170q-199 -193 -198 -496q0 -295 182 -480t471 -185q197 0 334 104.5t182 288.5h104q-61 -238 -228 -366t-415 -128q-293 0 -499 189 q-252 229 -252 577z" />
<glyph unicode="D" horiz-adv-x="1458" d="M59 0v100h170v1274h-170v101h459q344 0 481 -78q383 -217 383 -660q0 -209 -101 -380t-286 -273q-152 -84 -477 -84h-459zM348 100h170q342 0 542 177.5t200 465.5q0 367 -322 555q-131 76 -420 76h-170v-1274z" />
<glyph unicode="E" horiz-adv-x="1208" d="M59 0v100h170v1274h-170v101h1080v-363h-119v262h-672v-543h516v-100h-516v-631h672v256h119v-356h-1080z" />
<glyph unicode="F" horiz-adv-x="1142" d="M59 0v100h170v1274h-170v101h1094v-363h-117v262h-688v-543h516v-100h-516v-631h191v-100h-480z" />
<glyph unicode="G" horiz-adv-x="1685" d="M76 737q0 350 252 580q205 186 499 186q358 0 525 -264v236h102v-459h-92q-49 180 -191.5 283.5t-343.5 103.5q-256 0 -432 -170q-199 -193 -198 -496q0 -297 183 -481t478 -184q229 0 370.5 129t151.5 350h-454v98h704v-98h-151v-551h-111v238q-162 -266 -524 -267 q-229 0 -398 101q-176 104 -273 279t-97 386z" />
<glyph unicode="H" horiz-adv-x="1478" d="M59 0v100h170v1274h-170v101h459v-101h-170v-555h782v555h-169v101h458v-101h-170v-1274h170v-100h-458v100h169v621h-782v-621h170v-100h-459z" />
<glyph unicode="I" horiz-adv-x="577" d="M41 0v100h188v1274h-188v101h498v-101h-191v-1274h191v-100h-498z" />
<glyph unicode="J" horiz-adv-x="563" d="M-4 -137h37q125 0 160.5 49t35.5 188v1274h-188v101h483v-101h-176v-1274q0 -180 -64.5 -262t-213.5 -82h-74v107z" />
<glyph unicode="K" horiz-adv-x="1304" d="M59 0v100h170v1274h-170v101h459v-101h-170v-616l658 616h-158v101h450v-101h-147l-678 -629l686 -645h139v-100h-473v100h158l-635 605v-605h170v-100h-459z" />
<glyph unicode="L" horiz-adv-x="1083" d="M59 0v100h170v1274h-170v101h459v-101h-170v-1274h602v213h119v-313h-1010z" />
<glyph unicode="M" horiz-adv-x="1792" d="M51 0v100h189v1274h-189v101h314l530 -1252l532 1252h314v-101h-189v-1274h189v-100h-498v100h191v1149l-506 -1192h-64l-506 1192v-1149h191v-100h-498z" />
<glyph unicode="N" horiz-adv-x="1470" d="M59 0v100h170v1274h-170v101h351l710 -1280v1179h-155v101h444v-101h-170v-1403h-119l-772 1375v-1246h158v-100h-447z" />
<glyph unicode="O" horiz-adv-x="1654" d="M76 737q0 350 252 580q205 186 499.5 186t499.5 -186q252 -233 252 -580q0 -348 -252 -577q-207 -188 -499.5 -188.5t-499.5 188.5q-252 229 -252 577zM197 737q0 -301 198 -493q174 -170 432 -170t433 170q199 193 198 493q0 303 -198 496q-176 170 -432.5 170 t-432.5 -170q-198 -193 -198 -496z" />
<glyph unicode="P" horiz-adv-x="1187" d="M41 0v100h188v1274h-188v101h563q279 0 423 -115t144 -334q0 -449 -567 -448h-256v-478h191v-100h-498zM348 672h248q231 0 343 86t112 266t-112 265t-343 85h-248v-702z" />
<glyph unicode="Q" horiz-adv-x="1654" d="M76 737q0 350 252 580q205 186 499.5 186t499.5 -186q252 -233 252 -580q0 -260 -139.5 -455.5t-382.5 -275.5l53 -106h219v-101h-280l-91 185q-90 -12 -149 -13q-274 0 -481 189q-252 229 -252 577zM197 737q0 -381 286 -563q158 -100 346 -100q53 0 82 4l-80 166l89 43 l90 -187q209 59 328.5 229.5t119.5 407.5q0 303 -198 496q-176 170 -432.5 170t-432.5 -170q-198 -193 -198 -496z" />
<glyph unicode="R" horiz-adv-x="1341" d="M41 0v100h188v1274h-188v101h629q264 0 401 -98.5t137 -280.5q0 -137 -90 -228.5t-254 -113.5q160 -41 219.5 -123t59.5 -246v-285h170v-100h-289v352q0 205 -109.5 285t-386.5 80h-180v-617h191v-100h-498zM348 817h291q231 0 339.5 65.5t108.5 213t-108.5 213 t-339.5 65.5h-291v-557z" />
<glyph unicode="S" horiz-adv-x="1355" d="M193 -4v491h98q27 -195 157 -307t322 -112q156 0 253 81.5t97 212.5q0 109 -70.5 175.5t-224.5 107.5l-192 51q-438 119 -438 418q0 166 125.5 275.5t320.5 109.5q133 0 241.5 -57.5t170.5 -159.5l-6 188h98v-393h-92q-39 154 -150.5 238t-271.5 84q-139 0 -232.5 -76 t-93.5 -190q0 -231 348 -320l228 -59q350 -90 350 -381q0 -178 -131 -292t-348 -114q-295 0 -467 260l6 -231h-98z" />
<glyph unicode="T" horiz-adv-x="1157" d="M35 1071v404h1085v-404h-102v303h-381v-1274h190v-100h-497v100h188v1274h-379v-303h-104z" />
<glyph unicode="U" horiz-adv-x="1441" d="M39 1374v101h461v-101h-172v-837q0 -135 16 -215t72 -138q102 -109 303 -108q205 0 307 108q55 57 71.5 137t16.5 216v837h-172v101h461v-101h-172v-891q0 -512 -510 -512q-512 0 -512 512v891h-170z" />
<glyph unicode="V" horiz-adv-x="1247" d="M-10 1374v101h432v-101h-160l361 -1235l364 1235h-162v101h432v-101h-159l-420 -1399h-109l-422 1399h-157z" />
<glyph unicode="W" horiz-adv-x="1892" d="M-8 1374v101h418v-101h-172l356 -1241l289 1241h-172v101h471v-101h-172l288 -1241l357 1241h-172v101h418v-101h-125l-420 -1399h-117l-293 1254l-293 -1254h-118l-418 1399h-125z" />
<glyph unicode="X" horiz-adv-x="1318" d="M-8 0v100h172l434 633l-426 641h-160v101h473v-101h-180l361 -549l364 549h-199v101h476v-101h-160l-426 -629l434 -645h170v-100h-465v100h162l-367 551l-370 -551h172v-100h-465z" />
<glyph unicode="Y" horiz-adv-x="1251" d="M-8 1374v101h461v-101h-195l365 -633l362 633h-186v101h461v-101h-146l-430 -735v-539h190v-100h-497v100h188v551l-426 723h-147z" />
<glyph unicode="Z" horiz-adv-x="1327" d="M166 0v100l854 1274h-744v-287h-110v388h985v-101l-854 -1274h743v289h111v-389h-985z" />
<glyph unicode="[" horiz-adv-x="741" d="M256 -176v1651h395v-99h-282v-1456h282v-96h-395z" />
<glyph unicode="\" horiz-adv-x="577" d="M-20 1503h92l526 -1693h-90z" />
<glyph unicode="]" horiz-adv-x="741" d="M90 -80h283v1456h-283v99h395v-1651h-395v96z" />
<glyph unicode="^" horiz-adv-x="2048" d="M424 901l539 557h118l541 -557h-125l-473 469l-475 -469h-125z" />
<glyph unicode="_" d="M0 -403h1024v-80h-1024v80z" />
<glyph unicode="`" d="M276 1407h152l209 -348h-92z" />
<glyph unicode="a" horiz-adv-x="1224" d="M55 463q0 215 130 350t331 135q242 0 397 -198v174h256v-95h-151v-735h151v-94h-256v197q-143 -219 -391 -220q-197 0 -329 140q-138 143 -138 346zM164 465q0 -164 109.5 -276.5t263 -112.5t264 113.5t110.5 275.5q0 166 -110.5 278.5t-272.5 112.5q-160 0 -262 -108.5 t-102 -282.5z" />
<glyph unicode="b" horiz-adv-x="1224" d="M45 0v94h152v1286h-152v95h256v-725q156 199 397 198q201 0 331 -135t130 -350q0 -203 -137 -346q-133 -139 -330 -140q-248 0 -391 220v-197h-256zM303 465q0 -162 112.5 -276.5t268.5 -114.5q154 0 260.5 112.5t106.5 278.5q0 176 -102.5 283.5t-270.5 107.5 q-154 0 -264.5 -112.5t-110.5 -278.5z" />
<glyph unicode="c" horiz-adv-x="1089" d="M68 463q0 215 137 348q141 137 338 137q203 0 319 -133l-2 109h94v-310h-94q-33 115 -115.5 178.5t-201.5 63.5q-160 0 -264.5 -109.5t-104.5 -283.5q0 -172 107.5 -282.5t269.5 -110.5q190 0 342 176l65 -64q-172 -207 -407 -207q-217 0 -350 134.5t-133 353.5z" />
<glyph unicode="d" horiz-adv-x="1222" d="M68 463q0 215 130 350t330 135q242 0 398 -198v630h-152v95h256v-1381h150v-94h-254v197q-143 -219 -391 -220q-197 0 -330 140q-137 143 -137 346zM174 465q0 -164 110.5 -276.5t264 -112.5t263.5 113.5t110 275.5q0 166 -111 278.5t-272 112.5q-160 0 -262.5 -108.5 t-102.5 -282.5z" />
<glyph unicode="e" horiz-adv-x="1142" d="M66 461q0 207 143 347t362 140q229 0 365.5 -138t138.5 -378h-899q8 -162 121 -263t274 -101q240 0 351 200h116q-150 -293 -467 -293q-219 0 -362 139.5t-143 346.5zM176 518h791q-25 160 -129.5 249t-266.5 89q-154 0 -262 -92t-133 -246z" />
<glyph unicode="f" horiz-adv-x="563" d="M43 0v94h166v735h-166v95h166v278q0 145 57.5 209t194.5 64q39 0 88 -7v-90q-45 6 -82 6q-88 0 -121 -42t-33 -146v-272h181v-95h-181v-735h181v-94h-451z" />
<glyph unicode="g" horiz-adv-x="1224" d="M68 463q0 215 130 350t330 135q242 0 398 -198v174h254v-95h-150v-618q0 -113 -3 -173.5t-18.5 -133t-45.5 -125.5q-55 -94 -162 -149.5t-234 -55.5q-328 0 -446 242h117q88 -150 311 -150q199 0 289 109.5t90 345.5q0 49 -2 76q-143 -219 -391 -220q-197 0 -330 140 q-137 143 -137 346zM174 465q0 -164 110.5 -276.5t264 -112.5t263.5 113.5t110 275.5q0 166 -111 278.5t-272 112.5q-160 0 -262.5 -108.5t-102.5 -282.5z" />
<glyph unicode="h" horiz-adv-x="1165" d="M55 0v94h152v1286h-152v95h256v-725q174 199 385 198q152 0 215.5 -78.5t63.5 -253.5v-522h151v-94h-405v94h149v522q0 123 -45 180.5t-147 57.5q-190 0 -367 -231v-529h154v-94h-410z" />
<glyph unicode="i" horiz-adv-x="512" d="M33 0v94h174v735h-164v95h268v-830h156v-94h-434zM201 1112v240h106v-240h-106z" />
<glyph unicode="j" horiz-adv-x="468" d="M6 -334q125 39 163 118t38 247v798h-164v95h268v-897q0 -209 -64.5 -310.5t-240.5 -142.5v92zM201 1112v240h106v-240h-106z" />
<glyph unicode="k" horiz-adv-x="1056" d="M33 0v94h174v1286h-164v95h268v-938l363 292h-154v95h447v-95h-150l-399 -317l454 -418h152v-94h-424v94h131l-420 383v-383h150v-94h-428z" />
<glyph unicode="l" horiz-adv-x="512" d="M33 0v94h174v1286h-164v95h268v-1381h156v-94h-434z" />
<glyph unicode="m" horiz-adv-x="1761" d="M55 0v94h152v735h-152v95h256v-174q90 104 173 151t184 47q201 0 260 -164q162 164 358 164q152 0 215.5 -78.5t63.5 -253.5v-522h151v-94h-405v94h149v522q0 123 -45 180.5t-147 57.5q-180 0 -324 -174v-586h152v-94h-406v94h150v522q0 123 -43 181.5t-138 58.5 q-170 0 -348 -233v-529h154v-94h-410z" />
<glyph unicode="n" horiz-adv-x="1171" d="M55 0v94h152v735h-152v95h256v-174q174 199 385 198q152 0 215.5 -78.5t63.5 -253.5v-522h151v-94h-405v94h149v522q0 123 -45 180.5t-147 57.5q-190 0 -367 -231v-529h154v-94h-410z" />
<glyph unicode="o" horiz-adv-x="1142" d="M66 461q0 207 143 347t362 140q217 0 360.5 -140t143.5 -347t-142 -346.5t-361.5 -139.5t-362.5 139.5t-143 346.5zM174 463q0 -172 113.5 -283.5t283.5 -111.5t285 112.5t115 282.5q0 172 -114 282.5t-286 110.5t-284.5 -110.5t-112.5 -282.5z" />
<glyph unicode="p" horiz-adv-x="1234" d="M55 -332h150v1161h-150v95h254v-174q156 199 400 198q201 0 330.5 -135t129.5 -350q0 -203 -137 -346q-133 -139 -332 -140q-248 0 -391 220v-529h160v-94h-414v94zM313 465q0 -164 112 -277.5t271 -113.5q154 0 259.5 113.5t105.5 277.5q0 176 -103.5 283.5 t-271.5 107.5q-154 0 -263.5 -112.5t-109.5 -278.5z" />
<glyph unicode="q" horiz-adv-x="1234" d="M66 463q0 215 130 350t330 135q244 0 400 -198v174h254v-95h-150v-1161h150v-94h-414v94h160v529q-143 -219 -391 -220q-199 0 -332 140q-137 143 -137 346zM174 465q0 -164 110.5 -276.5t264 -112.5t263.5 113.5t110 275.5q0 166 -110 278.5t-263 112.5 q-168 0 -271.5 -107.5t-103.5 -283.5z" />
<glyph unicode="r" horiz-adv-x="772" d="M55 0v94h152v735h-152v95h256v-125q98 152 232 151q184 0 194 -198h-86q-10 106 -112 106q-227 0 -228 -444v-320h154v-94h-410z" />
<glyph unicode="s" horiz-adv-x="985" d="M127 698q0 111 89 181.5t239 70.5q205 0 286 -129l-2 103h95v-269h-95q-20 98 -96 153.5t-192 55.5q-100 0 -160 -43t-60 -112.5t50.5 -102.5t173.5 -55l129 -25q303 -57 303 -268q0 -119 -91 -194.5t-243 -75.5q-197 0 -330 135l2 -123h-96v328h96q27 -119 114 -184.5 t214 -65.5q98 0 163.5 50t65.5 124t-52 114t-169 64l-121 25q-168 35 -240.5 87t-72.5 156z" />
<glyph unicode="t" horiz-adv-x="569" d="M29 829v95h157v364h103v-364h178v-95h-178v-569v-14q0 -104 17.5 -134t94.5 -30q53 0 91 6v-90q-66 -6 -103 -6q-59 0 -96 8t-59.5 20.5t-33 45t-12.5 63.5t-2 96v604h-157z" />
<glyph unicode="u" horiz-adv-x="1161" d="M39 829v95h256v-617q0 -123 45 -180t147 -57q190 0 367 231v528h-154v95h258v-830h152v-94h-256v176q-176 -201 -385 -201q-152 0 -215.5 79t-63.5 253v522h-151z" />
<glyph unicode="v" horiz-adv-x="944" d="M-49 829v95h407v-95h-161l278 -716l268 716h-161v95h407v-95h-139l-332 -854h-80l-348 854h-139z" />
<glyph unicode="w" horiz-adv-x="1507" d="M-6 829v95h397v-95h-164l240 -692l207 692h-142v95h451v-95h-154l203 -692l244 692h-154v95h400v-95h-150l-303 -854h-78l-241 797l-244 -797h-78l-299 854h-135z" />
<glyph unicode="x" horiz-adv-x="1011" d="M14 0v94h144l297 379l-279 356h-135v95h387v-95h-131l217 -280l219 280h-135v95h403v-95h-151l-279 -354l279 -381h151v-94h-403v94h131l-217 303l-240 -303h138v-94h-396z" />
<glyph unicode="y" horiz-adv-x="980" d="M-23 829v95h361v-95h-135l280 -643l287 643h-145v95h370v-95h-118l-523 -1161h156v-94h-414v94h152l184 414l-340 747h-115z" />
<glyph unicode="z" horiz-adv-x="972" d="M90 0v94l623 735h-510v-157h-97v252h746v-72l-641 -758h555v172h94v-266h-770z" />
<glyph unicode="{" d="M176 485v90q18 -2 49 -2q141 0 197.5 66t56.5 221v240q0 217 63.5 297t262.5 80h43v-88h-37q-141 0 -185 -55.5t-44 -209.5v-241q0 -162 -39 -241t-156 -112q119 -35 157 -112.5t38 -239.5v-241q0 -154 43 -208.5t184 -54.5h39v-88h-43q-199 0 -262.5 79t-63.5 296v240 q0 156 -57 221t-201 65q-6 0 -21.5 -1t-23.5 -1z" />
<glyph unicode="|" d="M467 -483v2048h90v-2048h-90z" />
<glyph unicode="}" d="M176 -326h39q141 0 184 54.5t43 208.5v241q0 162 39 240t158 112q-119 33 -158 112t-39 241v241q0 154 -44 209.5t-185 55.5h-37v88h43q199 0 262.5 -80t63.5 -297v-240q0 -156 57 -221.5t201 -65.5q6 0 21.5 1t23.5 1v-90q-8 0 -23.5 1t-21.5 1q-143 0 -200.5 -65.5 t-57.5 -220.5v-240q0 -217 -63.5 -296t-262.5 -79h-43v88z" />
<glyph unicode="~" horiz-adv-x="1705" d="M178 481v92q211 147 387 148q92 0 289 -70q199 -72 289 -71q160 0 387 159v-92q-211 -147 -387 -147q-98 0 -289 69q-8 2 -41 14.5t-43 15.5t-37.5 12.5t-43 12.5t-39 8t-44 7t-41.5 2q-160 0 -387 -160z" />
<glyph unicode="&#xa1;" horiz-adv-x="524" d="M154 1386q0 45 30.5 76t77.5 31t78 -30.5t31 -76.5q0 -47 -32 -77.5t-77 -30.5q-47 0 -77.5 30.5t-30.5 77.5zM197 0l18 1147h92l21 -1147h-131z" />
<glyph unicode="&#xa2;" horiz-adv-x="1048" d="M94 477q0 203 142.5 341t349.5 138q49 0 100 -6l82 244h86l-90 -268q92 -41 143 -109l-6 117h88v-307h-84q-63 168 -170 209l-246 -736q49 -14 97 -14q188 0 342 178l78 -63q-190 -211 -431 -211q-59 0 -118 14l-90 -266h-84l96 293q-135 63 -210 179.5t-75 266.5z M205 487q0 -258 207 -360l245 731q-57 8 -77 8q-156 0 -265.5 -110.5t-109.5 -268.5z" />
<glyph unicode="&#xa3;" horiz-adv-x="1048" d="M88 647v86h188q-76 221 -75 359q0 170 101 271t271 101q162 0 257.5 -88t95.5 -227q0 -47 -13 -100h-106q8 61 8 86q0 109 -64.5 169t-179.5 60q-117 0 -186.5 -75t-69.5 -202q0 -90 74 -354h227v-86h-208q27 -121 26 -223q0 -135 -63 -260q166 -90 315 -90 q203 0 203 205q0 45 -15 90h103q18 -55 18 -115q0 -137 -77.5 -211t-219.5 -74q-147 0 -376 109q-90 -86 -164 -101l-43 107q119 41 169 121t50 223q0 115 -33 219h-213z" />
<glyph unicode="&#xa4;" horiz-adv-x="1048" d="M0 543l25 82h104q-2 37 -2 118q0 76 2 111h-129l25 82h110q27 274 127 401t293 127q90 0 174 -47t121 -127v146h102v-398h-92q-20 145 -109 236.5t-196 91.5q-150 0 -218.5 -102.5t-86.5 -327.5h547l-25 -82h-528q-2 -35 -2 -111q0 -82 2 -118h430l-25 -82h-399 q23 -260 102.5 -365.5t222.5 -105.5q238 0 289 274h105q-35 -176 -133.5 -275.5t-260.5 -99.5q-207 0 -311 133.5t-129 438.5h-135z" />
<glyph unicode="&#xa5;" horiz-adv-x="1048" d="M-6 1341v95h358v-95h-145l317 -610l307 610h-135v95h357v-95h-111l-158 -303h254v-84h-297l-118 -227h415v-84h-460v-549h190v-94h-494v94h189v551h-455v82h412l-119 229h-293v82h248l-162 303h-100z" />
<glyph unicode="&#xa6;" d="M467 -350v758h90v-758h-90zM467 674v758h90v-758h-90z" />
<glyph unicode="&#xa7;" d="M78 801q0 100 72.5 173t177.5 73q27 0 57 -7q-145 152 -145 252q0 182 280 183h217v-279h-96v188h-117q-94 0 -133 -18t-39 -76q0 -70 97 -176l335 -362q86 -94 124 -154.5t38 -130.5q0 -104 -74.5 -176t-193.5 -72h-25q135 -117 135 -252q0 -199 -284 -198h-244v323h98 v-233h123q193 0 193 116q0 72 -121 203l-320 344q-82 88 -118.5 148.5t-36.5 130.5zM182 807q0 -78 92 -178l187 -201q111 -121 217 -121q74 0 120 44t46 110q0 76 -92 176l-187 201q-113 123 -217 123q-74 0 -120 -44t-46 -110z" />
<glyph unicode="&#xa8;" d="M281 1137v161h141v-161h-141zM602 1137v161h141v-161h-141z" />
<glyph unicode="&#xa9;" horiz-adv-x="1705" d="M123 721q0 299 217 520q207 211 512 211t520 -215q211 -211 211 -516t-211 -512q-223 -219 -520 -219t-514 217q-215 215 -215 514zM195 721q0 -268 194.5 -463t462.5 -195t469 197q190 186 190 460.5t-190 465.5q-195 195 -469 194.5t-461 -190.5q-196 -201 -196 -469z M471 725q0 207 107.5 329t281.5 122q131 0 222.5 -72t103.5 -186h-105q-20 82 -79.5 127t-147.5 45q-125 0 -195.5 -97.5t-70.5 -273.5q0 -170 71.5 -267.5t194.5 -97.5q90 0 155.5 52.5t84.5 140.5h102q-10 -123 -107.5 -201t-240.5 -78q-172 0 -274.5 122t-102.5 335z" />
<glyph unicode="&#xaa;" horiz-adv-x="919" d="M41 1151q0 152 98.5 246t247.5 94q180 0 299 -139v123h191v-68h-113v-514h113v-66h-191v138q-109 -154 -295 -154q-147 0 -246 98q-104 99 -104 242zM123 1153q0 -115 82 -193.5t198 -78.5q115 0 198 79.5t83 192.5q0 117 -83 195.5t-204 78.5t-197.5 -75.5t-76.5 -198.5 z" />
<glyph unicode="&#xab;" horiz-adv-x="944" d="M131 461l258 313h135l-258 -313l258 -311h-135zM438 461l258 313h135l-258 -313l258 -311h-135z" />
<glyph unicode="&#xac;" horiz-adv-x="1705" d="M254 776v80h1198v-502h-80v422h-1118z" />
<glyph unicode="&#xad;" horiz-adv-x="634" d="M68 420v102h501v-102h-501z" />
<glyph unicode="&#xae;" horiz-adv-x="1705" d="M123 721q0 299 217 520q207 211 512 211t520 -215q211 -211 211 -516t-211 -512q-223 -219 -520 -219t-514 217q-215 215 -215 514zM195 721q0 -268 194.5 -463t462.5 -195t469 197q190 186 190 460.5t-190 465.5q-195 195 -469 194.5t-461 -190.5q-196 -201 -196 -469z M569 309v846h305q178 0 263.5 -56.5t85.5 -176.5q0 -88 -55.5 -148.5t-147.5 -71.5l190 -393h-131l-182 377h-213v-377h-115zM684 764h168q139 0 196.5 33.5t57.5 128.5q0 152 -254 151h-168v-313z" />
<glyph unicode="&#xaf;" d="M256 1159v117h512v-117h-512z" />
<glyph unicode="&#xb0;" horiz-adv-x="673" d="M63 1175.5q0 114.5 80 194.5t195 80q113 0 192.5 -81t79.5 -193.5t-79.5 -192.5t-194.5 -80t-194 79t-79 193.5zM125 1176q0 -88 62.5 -150.5t150.5 -62.5t150.5 62t62.5 150.5t-62.5 151t-150.5 62.5t-150.5 -61.5t-62.5 -151.5z" />
<glyph unicode="&#xb1;" horiz-adv-x="1705" d="M254 61v80h1198v-80h-1198zM254 727v80h559v354h80v-354h559v-80h-559v-352h-80v352h-559z" />
<glyph unicode="&#xb2;" horiz-adv-x="692" d="M61 575v58q57 63 153.5 165.5t137.5 148.5t91.5 109.5t68.5 104.5t18 80q0 70 -51 113t-135 43q-98 0 -152.5 -62.5t-54.5 -179.5v-12h-69q-2 10 -2 31q0 131 75.5 205.5t204.5 74.5q115 0 187.5 -58.5t72.5 -148.5t-90 -205.5t-313 -349.5q-37 -39 -58 -59h408v160h74 v-218h-566z" />
<glyph unicode="&#xb3;" horiz-adv-x="692" d="M66 813v10h69q2 -94 59.5 -149.5t147.5 -55.5q86 0 145.5 53.5t59.5 133.5q0 84 -62.5 137t-165.5 53q-2 0 -11 -1t-15 -1v58q117 0 182.5 48t65.5 128q0 76 -52.5 122t-140.5 46q-90 0 -141 -50.5t-53 -146.5h-68v2q0 117 73.5 185.5t196.5 68.5q115 0 187.5 -64.5 t72.5 -162.5q0 -74 -49 -129.5t-135 -71.5q86 -14 138.5 -74.5t52.5 -144.5q0 -102 -80 -175t-195 -73q-129 0 -205.5 68.5t-76.5 185.5z" />
<glyph unicode="&#xb4;" d="M387 1059l209 348h152l-269 -348h-92z" />
<glyph unicode="&#xb5;" horiz-adv-x="1093" d="M-111 -424l316 1487h121l-123 -590q-16 -82 -17 -141q0 -125 59.5 -191.5t174.5 -66.5q125 0 218 107.5t138 314.5l125 567h121l-166 -787q-25 -117 -25 -135q0 -63 68 -63q16 0 39 2l-18 -96q-57 -12 -76 -13q-133 0 -133 127q0 12 4 45q-90 -172 -312 -172 q-98 0 -169.5 45t-104.5 127l-119 -567h-121z" />
<glyph unicode="&#xb6;" d="M90 1130q0 156 107.5 252.5t287.5 96.5h447v-64h-129v-1415h-70v1415h-192v-1415h-70v782q-176 8 -278.5 103t-102.5 245z" />
<glyph unicode="&#xb7;" horiz-adv-x="524" d="M154 741q0 45 31.5 77t76.5 32q47 0 78 -31t31 -78q0 -45 -31 -75.5t-78 -30.5t-77.5 30.5t-30.5 75.5z" />
<glyph unicode="&#xb8;" d="M303 -342q152 -35 238 -35q131 0 131 90q0 104 -146 105q-31 0 -47 -2v184h66v-111h14q223 0 223 -172q0 -176 -225 -176q-106 0 -254 41v76z" />
<glyph unicode="&#xb9;" horiz-adv-x="692" d="M203 575v58h119v747h-111v58h186v-805h117v-58h-311z" />
<glyph unicode="&#xba;" horiz-adv-x="858" d="M49 1149q0 145 107.5 243.5t271.5 98.5t271.5 -98.5t107.5 -243.5q0 -143 -107.5 -240.5t-271.5 -97.5t-271.5 97.5t-107.5 240.5zM131 1151q0 -119 85 -198t212 -79q129 0 215 79t86 198q0 121 -86 198.5t-215 77.5t-213 -77.5t-84 -198.5z" />
<glyph unicode="&#xbb;" horiz-adv-x="944" d="M113 150l256 311l-256 313h133l258 -313l-258 -311h-133zM420 150l258 311l-258 313h135l258 -313l-258 -311h-135z" />
<glyph unicode="&#xbc;" horiz-adv-x="1662" d="M195 633v53h112v698h-104v54h178v-752h108v-53h-294zM317 -29l930 1493h94l-929 -1493h-95zM1042 221v51l381 533h58v-533h112v-51h-112v-168h112v-53h-297v53h113v168h-367zM1114 272h295v293q0 51 16 150z" />
<glyph unicode="&#xbd;" horiz-adv-x="1662" d="M195 633v53h112v698h-104v54h178v-752h108v-53h-294zM317 -29l930 1493h94l-929 -1493h-95zM1059 0v53q51 55 147.5 155.5t132 139.5t86 100.5t66.5 99.5t16 73q0 66 -48 105.5t-130 39.5q-94 0 -145 -57.5t-51 -167.5v-13h-68v31q0 121 71.5 190.5t194.5 69.5 q111 0 179.5 -54t68.5 -138t-87 -193.5t-300 -327.5l-53 -53h391v150h69v-203h-540z" />
<glyph unicode="&#xbe;" horiz-adv-x="1662" d="M63 856v8h66q2 -88 56.5 -139t140.5 -51q84 0 140 49t56 123q0 80 -59.5 129t-157.5 49q-2 0 -11 -1t-15 -1v53q113 2 175 46t62 120q0 72 -50 114t-132 42q-178 0 -189 -185h-63v2q0 111 70.5 174.5t187.5 63.5q111 0 179.5 -59.5t68.5 -151.5q0 -70 -47 -121t-127 -67 q82 -14 131 -69.5t49 -133.5q0 -96 -76 -165t-184 -69q-123 0 -197 65.5t-74 174.5zM319 -29l930 1493h94l-929 -1493h-95zM1044 221v51l381 533h58v-533h112v-51h-112v-168h112v-53h-297v53h113v168h-367zM1116 272h295v293q0 51 16 150z" />
<glyph unicode="&#xbf;" horiz-adv-x="1042" d="M147 381q0 166 100.5 276.5t270.5 124.5v375h111v-471q-6 0 -18.5 1t-16.5 1q-160 0 -248 -88t-88 -242q0 -123 81 -204.5t202 -81.5q117 0 190.5 77.5t77.5 210.5h109q-4 -174 -111 -279.5t-270 -105.5q-176 0 -283 110t-107 296zM465 1395q0 47 31.5 77.5t76.5 30.5 t76 -30.5t31 -77.5t-31 -77t-76 -30q-47 0 -77.5 30t-30.5 77z" />
<glyph unicode="&#xc0;" horiz-adv-x="1355" d="M-37 0v100h143l467 1274h-149v101h508v-101h-150l467 -1274h144v-100h-432v100h167l-131 361h-639l-131 -361h168v-100h-432zM397 559h561l-280 782zM442 1962h152l209 -348h-92z" />
<glyph unicode="&#xc1;" horiz-adv-x="1355" d="M-37 0v100h143l467 1274h-149v101h508v-101h-150l467 -1274h144v-100h-432v100h167l-131 361h-639l-131 -361h168v-100h-432zM397 559h561l-280 782zM553 1614l209 348h152l-269 -348h-92z" />
<glyph unicode="&#xc2;" horiz-adv-x="1355" d="M-37 0v100h143l467 1274h-149v101h508v-101h-150l467 -1274h144v-100h-432v100h167l-131 361h-639l-131 -361h168v-100h-432zM397 559h561l-280 782zM402 1614l200 348h152l200 -348h-92l-184 262l-184 -262h-92z" />
<glyph unicode="&#xc3;" horiz-adv-x="1355" d="M-37 0v100h143l467 1274h-149v101h508v-101h-150l467 -1274h144v-100h-432v100h167l-131 361h-639l-131 -361h168v-100h-432zM397 559h561l-280 782zM389 1671q43 182 195 182q37 0 53 -6l96 -32q29 -10 56 -11q61 0 96 74h82q-53 -182 -191 -182q-29 0 -65 10l-96 31 q-25 8 -54 8q-59 0 -92 -74h-80z" />
<glyph unicode="&#xc4;" horiz-adv-x="1355" d="M-37 0v100h143l467 1274h-149v101h508v-101h-150l467 -1274h144v-100h-432v100h167l-131 361h-639l-131 -361h168v-100h-432zM397 559h561l-280 782zM447 1692v161h141v-161h-141zM768 1692v161h141v-161h-141z" />
<glyph unicode="&#xc5;" horiz-adv-x="1355" d="M-37 0v100h143l467 1274h-149v101h508v-101h-150l467 -1274h144v-100h-432v100h167l-131 361h-639l-131 -361h168v-100h-432zM397 559h561l-280 782zM459 1751q0 92 63.5 156.5t155.5 64.5t157.5 -64.5t65.5 -156.5t-65.5 -155.5t-157.5 -63.5t-155.5 63.5t-63.5 155.5z M545 1751q0 -55 40 -94t95 -39t94 39t39 94t-39 95t-94 40t-95 -40t-40 -95z" />
<glyph unicode="&#xc6;" horiz-adv-x="1961" d="M-53 0v100h129l747 1274h-209v101h1278v-363h-118v262h-650v-543h494v-100h-494v-631h650v256h118v-356h-1054v100h168v361h-598l-209 -361h180v-100h-432zM467 559h539v815h-62z" />
<glyph unicode="&#xc7;" horiz-adv-x="1521" d="M76 737q0 350 252 580q205 186 499 186q356 0 525 -264v236h102v-459h-92q-51 182 -192.5 284.5t-342.5 102.5q-256 0 -432 -170q-199 -193 -198 -496q0 -295 182 -480t471 -185q197 0 334 104.5t182 288.5h104q-61 -238 -228 -366t-415 -128q-293 0 -499 189 q-252 229 -252 577zM643 -342q152 -35 238 -35q131 0 131 90q0 104 -146 105q-31 0 -47 -2v184h66v-111h14q223 0 223 -172q0 -176 -225 -176q-106 0 -254 41v76z" />
<glyph unicode="&#xc8;" horiz-adv-x="1208" d="M59 0v100h170v1274h-170v101h1080v-363h-119v262h-672v-543h516v-100h-516v-631h672v256h119v-356h-1080zM417 1962h152l209 -348h-92z" />
<glyph unicode="&#xc9;" horiz-adv-x="1208" d="M59 0v100h170v1274h-170v101h1080v-363h-119v262h-672v-543h516v-100h-516v-631h672v256h119v-356h-1080zM528 1614l209 348h152l-269 -348h-92z" />
<glyph unicode="&#xca;" horiz-adv-x="1208" d="M59 0v100h170v1274h-170v101h1080v-363h-119v262h-672v-543h516v-100h-516v-631h672v256h119v-356h-1080zM377 1614l200 348h152l200 -348h-92l-184 262l-184 -262h-92z" />
<glyph unicode="&#xcb;" horiz-adv-x="1208" d="M59 0v100h170v1274h-170v101h1080v-363h-119v262h-672v-543h516v-100h-516v-631h672v256h119v-356h-1080zM422 1692v161h141v-161h-141zM743 1692v161h141v-161h-141z" />
<glyph unicode="&#xcc;" horiz-adv-x="577" d="M41 0v100h188v1274h-188v101h498v-101h-191v-1274h191v-100h-498zM53 1962h152l209 -348h-92z" />
<glyph unicode="&#xcd;" horiz-adv-x="577" d="M41 0v100h188v1274h-188v101h498v-101h-191v-1274h191v-100h-498zM164 1614l209 348h152l-269 -348h-92z" />
<glyph unicode="&#xce;" horiz-adv-x="577" d="M41 0v100h188v1274h-188v101h498v-101h-191v-1274h191v-100h-498zM13 1614l200 348h152l200 -348h-92l-184 262l-184 -262h-92z" />
<glyph unicode="&#xcf;" horiz-adv-x="577" d="M41 0v100h188v1274h-188v101h498v-101h-191v-1274h191v-100h-498zM58 1692v161h141v-161h-141zM379 1692v161h141v-161h-141z" />
<glyph unicode="&#xd0;" horiz-adv-x="1466" d="M31 731v94h209v549h-170v101h458q344 0 482 -78q381 -217 381 -660q0 -209 -100.5 -380t-284.5 -273q-152 -84 -478 -84h-458v100h170v631h-209zM358 100h170q342 0 542 177.5t200 465.5q0 367 -322 555q-131 76 -422 76h-168v-551h422v-92h-422v-631z" />
<glyph unicode="&#xd1;" horiz-adv-x="1470" d="M59 0v100h170v1274h-170v101h351l710 -1280v1179h-155v101h444v-101h-170v-1403h-119l-772 1375v-1246h158v-100h-447zM446 1671q43 182 195 182q37 0 53 -6l96 -32q29 -10 56 -11q61 0 96 74h82q-53 -182 -191 -182q-29 0 -65 10l-96 31q-25 8 -54 8q-59 0 -92 -74h-80z " />
<glyph unicode="&#xd2;" horiz-adv-x="1654" d="M76 737q0 350 252 580q205 186 499.5 186t499.5 -186q252 -233 252 -580q0 -348 -252 -577q-207 -188 -499.5 -188.5t-499.5 188.5q-252 229 -252 577zM197 737q0 -301 198 -493q174 -170 432 -170t433 170q199 193 198 493q0 303 -198 496q-176 170 -432.5 170 t-432.5 -170q-198 -193 -198 -496zM591 1962h152l209 -348h-92z" />
<glyph unicode="&#xd3;" horiz-adv-x="1654" d="M76 737q0 350 252 580q205 186 499.5 186t499.5 -186q252 -233 252 -580q0 -348 -252 -577q-207 -188 -499.5 -188.5t-499.5 188.5q-252 229 -252 577zM197 737q0 -301 198 -493q174 -170 432 -170t433 170q199 193 198 493q0 303 -198 496q-176 170 -432.5 170 t-432.5 -170q-198 -193 -198 -496zM702 1614l209 348h152l-269 -348h-92z" />
<glyph unicode="&#xd4;" horiz-adv-x="1654" d="M76 737q0 350 252 580q205 186 499.5 186t499.5 -186q252 -233 252 -580q0 -348 -252 -577q-207 -188 -499.5 -188.5t-499.5 188.5q-252 229 -252 577zM197 737q0 -301 198 -493q174 -170 432 -170t433 170q199 193 198 493q0 303 -198 496q-176 170 -432.5 170 t-432.5 -170q-198 -193 -198 -496zM551 1614l200 348h152l200 -348h-92l-184 262l-184 -262h-92z" />
<glyph unicode="&#xd5;" horiz-adv-x="1654" d="M76 737q0 350 252 580q205 186 499.5 186t499.5 -186q252 -233 252 -580q0 -348 -252 -577q-207 -188 -499.5 -188.5t-499.5 188.5q-252 229 -252 577zM197 737q0 -301 198 -493q174 -170 432 -170t433 170q199 193 198 493q0 303 -198 496q-176 170 -432.5 170 t-432.5 -170q-198 -193 -198 -496zM538 1671q43 182 195 182q37 0 53 -6l96 -32q29 -10 56 -11q61 0 96 74h82q-53 -182 -191 -182q-29 0 -65 10l-96 31q-25 8 -54 8q-59 0 -92 -74h-80z" />
<glyph unicode="&#xd6;" horiz-adv-x="1654" d="M76 737q0 350 252 580q205 186 499.5 186t499.5 -186q252 -233 252 -580q0 -348 -252 -577q-207 -188 -499.5 -188.5t-499.5 188.5q-252 229 -252 577zM197 737q0 -301 198 -493q174 -170 432 -170t433 170q199 193 198 493q0 303 -198 496q-176 170 -432.5 170 t-432.5 -170q-198 -193 -198 -496zM596 1692v161h141v-161h-141zM917 1692v161h141v-161h-141z" />
<glyph unicode="&#xd7;" horiz-adv-x="1705" d="M309 123l488 487l-488 488l58 57l487 -487l487 487l58 -57l-488 -488l488 -487l-58 -57l-487 487l-487 -487z" />
<glyph unicode="&#xd8;" horiz-adv-x="1654" d="M76 737q0 350 252 580q205 186 499 186q238 0 433 -129l147 189h119l-197 -248q250 -238 250 -578q0 -348 -252 -577q-207 -188 -500 -189q-250 0 -456 150l-170 -213h-119l219 274q-106 98 -165.5 244.5t-59.5 310.5zM197 737q0 -301 174 -469l821 1022 q-162 113 -365 113q-256 0 -432 -170q-198 -193 -198 -496zM440 207q174 -133 387 -133q258 0 433 170q199 193 198 493q0 297 -192 492z" />
<glyph unicode="&#xd9;" horiz-adv-x="1441" d="M39 1374v101h461v-101h-172v-837q0 -135 16 -215t72 -138q102 -109 303 -108q205 0 307 108q55 57 71.5 137t16.5 216v837h-172v101h461v-101h-172v-891q0 -512 -510 -512q-512 0 -512 512v891h-170zM485 1962h152l209 -348h-92z" />
<glyph unicode="&#xda;" horiz-adv-x="1441" d="M39 1374v101h461v-101h-172v-837q0 -135 16 -215t72 -138q102 -109 303 -108q205 0 307 108q55 57 71.5 137t16.5 216v837h-172v101h461v-101h-172v-891q0 -512 -510 -512q-512 0 -512 512v891h-170zM596 1614l209 348h152l-269 -348h-92z" />
<glyph unicode="&#xdb;" horiz-adv-x="1441" d="M39 1374v101h461v-101h-172v-837q0 -135 16 -215t72 -138q102 -109 303 -108q205 0 307 108q55 57 71.5 137t16.5 216v837h-172v101h461v-101h-172v-891q0 -512 -510 -512q-512 0 -512 512v891h-170zM445 1614l200 348h152l200 -348h-92l-184 262l-184 -262h-92z" />
<glyph unicode="&#xdc;" horiz-adv-x="1441" d="M39 1374v101h461v-101h-172v-837q0 -135 16 -215t72 -138q102 -109 303 -108q205 0 307 108q55 57 71.5 137t16.5 216v837h-172v101h461v-101h-172v-891q0 -512 -510 -512q-512 0 -512 512v891h-170zM490 1692v161h141v-161h-141zM811 1692v161h141v-161h-141z" />
<glyph unicode="&#xdd;" horiz-adv-x="1251" d="M-8 1374v101h461v-101h-195l365 -633l362 633h-186v101h461v-101h-146l-430 -735v-539h190v-100h-497v100h188v551l-426 723h-147zM502 1614l209 348h152l-269 -348h-92z" />
<glyph unicode="&#xde;" horiz-adv-x="1187" d="M41 0v100h188v1274h-188v101h498v-101h-191v-188h256q279 0 423 -115t144 -334q0 -449 -567 -448h-256v-189h191v-100h-498zM348 383h248q231 0 343 86t112 266t-112 265t-343 85h-248v-702z" />
<glyph unicode="&#xdf;" horiz-adv-x="1110" d="M55 0v94h144v938q0 459 393 459q164 0 265 -99.5t101 -252.5q0 -123 -57 -206t-162 -112q143 -31 222 -144.5t79 -289.5q0 -180 -94 -293.5t-233 -113.5q-92 0 -178 61l51 82q59 -45 129 -45q100 0 159.5 84t59.5 233q0 174 -96.5 272.5t-268.5 98.5q-6 0 -19 -1t-22 -1 v88q156 4 240 79t84 206q0 121 -72.5 195.5t-189.5 74.5q-147 0 -218 -91t-71 -282v-940h141v-94h-387z" />
<glyph unicode="&#xe0;" horiz-adv-x="1224" d="M55 463q0 215 130 350t331 135q242 0 397 -198v174h256v-95h-151v-735h151v-94h-256v197q-143 -219 -391 -220q-197 0 -329 140q-138 143 -138 346zM164 465q0 -164 109.5 -276.5t263 -112.5t264 113.5t110.5 275.5q0 166 -110.5 278.5t-272.5 112.5q-160 0 -262 -108.5 t-102 -282.5zM317 1407h152l209 -348h-92z" />
<glyph unicode="&#xe1;" horiz-adv-x="1224" d="M55 463q0 215 130 350t331 135q242 0 397 -198v174h256v-95h-151v-735h151v-94h-256v197q-143 -219 -391 -220q-197 0 -329 140q-138 143 -138 346zM164 465q0 -164 109.5 -276.5t263 -112.5t264 113.5t110.5 275.5q0 166 -110.5 278.5t-272.5 112.5q-160 0 -262 -108.5 t-102 -282.5zM428 1059l209 348h152l-269 -348h-92z" />
<glyph unicode="&#xe2;" horiz-adv-x="1224" d="M55 463q0 215 130 350t331 135q242 0 397 -198v174h256v-95h-151v-735h151v-94h-256v197q-143 -219 -391 -220q-197 0 -329 140q-138 143 -138 346zM164 465q0 -164 109.5 -276.5t263 -112.5t264 113.5t110.5 275.5q0 166 -110.5 278.5t-272.5 112.5q-160 0 -262 -108.5 t-102 -282.5zM277 1059l200 348h152l200 -348h-92l-184 262l-184 -262h-92z" />
<glyph unicode="&#xe3;" horiz-adv-x="1224" d="M55 463q0 215 130 350t331 135q242 0 397 -198v174h256v-95h-151v-735h151v-94h-256v197q-143 -219 -391 -220q-197 0 -329 140q-138 143 -138 346zM164 465q0 -164 109.5 -276.5t263 -112.5t264 113.5t110.5 275.5q0 166 -110.5 278.5t-272.5 112.5q-160 0 -262 -108.5 t-102 -282.5zM264 1116q43 182 195 182q37 0 53 -6l96 -32q29 -10 56 -11q61 0 96 74h82q-53 -182 -191 -182q-29 0 -65 10l-96 31q-25 8 -54 8q-59 0 -92 -74h-80z" />
<glyph unicode="&#xe4;" horiz-adv-x="1224" d="M55 463q0 215 130 350t331 135q242 0 397 -198v174h256v-95h-151v-735h151v-94h-256v197q-143 -219 -391 -220q-197 0 -329 140q-138 143 -138 346zM164 465q0 -164 109.5 -276.5t263 -112.5t264 113.5t110.5 275.5q0 166 -110.5 278.5t-272.5 112.5q-160 0 -262 -108.5 t-102 -282.5zM322 1137v161h141v-161h-141zM643 1137v161h141v-161h-141z" />
<glyph unicode="&#xe5;" horiz-adv-x="1224" d="M55 463q0 215 130 350t331 135q242 0 397 -198v174h256v-95h-151v-735h151v-94h-256v197q-143 -219 -391 -220q-197 0 -329 140q-138 143 -138 346zM164 465q0 -164 109.5 -276.5t263 -112.5t264 113.5t110.5 275.5q0 166 -110.5 278.5t-272.5 112.5q-160 0 -262 -108.5 t-102 -282.5zM344 1225q0 92 64.5 156.5t156.5 64.5t156.5 -64.5t64.5 -156.5t-64.5 -155.5t-156.5 -63.5t-156.5 63.5t-64.5 155.5zM432 1224.5q0 -55.5 39 -94t94.5 -38.5t94 38.5t38.5 94t-38.5 95.5t-94 40t-94.5 -40t-39 -95.5z" />
<glyph unicode="&#xe6;" horiz-adv-x="1804" d="M45 303q0 152 112.5 249t291.5 97q211 0 339 -121q2 14 3 41q0 141 -87.5 217t-248.5 76q-113 0 -260 -37l-17 86q137 43 266 43q330 0 416 -225q160 219 422 219q197 0 326 -142t131 -374h-852q8 -162 120.5 -263t274.5 -101q188 0 303 200h117q-152 -293 -434 -293 q-246 0 -410 211q-123 -211 -403 -211q-186 0 -298 92.5t-112 235.5zM145 313q0 -115 84 -181t234 -66q152 0 238.5 67.5t86.5 180t-83.5 180t-227.5 67.5q-160 0 -246 -65.5t-86 -182.5zM889 518h741q-27 156 -122 247t-226 91q-156 0 -262 -90t-131 -248z" />
<glyph unicode="&#xe7;" horiz-adv-x="1089" d="M68 463q0 215 137 348q141 137 338 137q203 0 319 -133l-2 109h94v-310h-94q-33 115 -115.5 178.5t-201.5 63.5q-160 0 -264.5 -109.5t-104.5 -283.5q0 -172 107.5 -282.5t269.5 -110.5q190 0 342 176l65 -64q-172 -207 -407 -207q-217 0 -350 134.5t-133 353.5z M336 -342q152 -35 238 -35q131 0 131 90q0 104 -146 105q-31 0 -47 -2v184h66v-111h14q223 0 223 -172q0 -176 -225 -176q-106 0 -254 41v76z" />
<glyph unicode="&#xe8;" horiz-adv-x="1142" d="M66 461q0 207 143 347t362 140q229 0 365.5 -138t138.5 -378h-899q8 -162 121 -263t274 -101q240 0 351 200h116q-150 -293 -467 -293q-219 0 -362 139.5t-143 346.5zM176 518h791q-25 160 -129.5 249t-266.5 89q-154 0 -262 -92t-133 -246zM335 1407h152l209 -348h-92z " />
<glyph unicode="&#xe9;" horiz-adv-x="1142" d="M66 461q0 207 143 347t362 140q229 0 365.5 -138t138.5 -378h-899q8 -162 121 -263t274 -101q240 0 351 200h116q-150 -293 -467 -293q-219 0 -362 139.5t-143 346.5zM176 518h791q-25 160 -129.5 249t-266.5 89q-154 0 -262 -92t-133 -246zM446 1059l209 348h152 l-269 -348h-92z" />
<glyph unicode="&#xea;" horiz-adv-x="1142" d="M66 461q0 207 143 347t362 140q229 0 365.5 -138t138.5 -378h-899q8 -162 121 -263t274 -101q240 0 351 200h116q-150 -293 -467 -293q-219 0 -362 139.5t-143 346.5zM176 518h791q-25 160 -129.5 249t-266.5 89q-154 0 -262 -92t-133 -246zM295 1059l200 348h152 l200 -348h-92l-184 262l-184 -262h-92z" />
<glyph unicode="&#xeb;" horiz-adv-x="1142" d="M66 461q0 207 143 347t362 140q229 0 365.5 -138t138.5 -378h-899q8 -162 121 -263t274 -101q240 0 351 200h116q-150 -293 -467 -293q-219 0 -362 139.5t-143 346.5zM176 518h791q-25 160 -129.5 249t-266.5 89q-154 0 -262 -92t-133 -246zM340 1137v161h141v-161h-141z M661 1137v161h141v-161h-141z" />
<glyph unicode="&#xec;" horiz-adv-x="512" d="M33 0v94h174v735h-164v95h268v-830h156v-94h-434zM-33 1407h152l209 -348h-92z" />
<glyph unicode="&#xed;" horiz-adv-x="512" d="M33 0v94h174v735h-164v95h268v-830h156v-94h-434zM78 1059l209 348h152l-269 -348h-92z" />
<glyph unicode="&#xee;" horiz-adv-x="512" d="M33 0v94h174v735h-164v95h268v-830h156v-94h-434zM-73 1059l200 348h152l200 -348h-92l-184 262l-184 -262h-92z" />
<glyph unicode="&#xef;" horiz-adv-x="512" d="M33 0v94h174v735h-164v95h268v-830h156v-94h-434zM-28 1137v161h141v-161h-141zM293 1137v161h141v-161h-141z" />
<glyph unicode="&#xf0;" horiz-adv-x="1142" d="M66 461q0 207 143 347t362 140q92 0 185 -30l-174 247l-308 -98l-28 78l282 90l-161 240h104l154 -211l206 63l31 -74l-188 -57l239 -332q162 -223 162 -407q0 -205 -143.5 -343.5t-360.5 -138.5q-219 0 -362 139.5t-143 346.5zM174 463q0 -172 112.5 -283.5 t284.5 -111.5t286 111.5t114 283.5q0 170 -115 281.5t-285 111.5t-283.5 -111.5t-113.5 -281.5z" />
<glyph unicode="&#xf1;" horiz-adv-x="1171" d="M55 0v94h152v735h-152v95h256v-174q174 199 385 198q152 0 215.5 -78.5t63.5 -253.5v-522h151v-94h-405v94h149v522q0 123 -45 180.5t-147 57.5q-190 0 -367 -231v-529h154v-94h-410zM297 1116q43 182 195 182q37 0 53 -6l96 -32q29 -10 56 -11q61 0 96 74h82 q-53 -182 -191 -182q-29 0 -65 10l-96 31q-25 8 -54 8q-59 0 -92 -74h-80z" />
<glyph unicode="&#xf2;" horiz-adv-x="1142" d="M66 461q0 207 143 347t362 140q217 0 360.5 -140t143.5 -347t-142 -346.5t-361.5 -139.5t-362.5 139.5t-143 346.5zM174 463q0 -172 113.5 -283.5t283.5 -111.5t285 112.5t115 282.5q0 172 -114 282.5t-286 110.5t-284.5 -110.5t-112.5 -282.5zM335 1407h152l209 -348 h-92z" />
<glyph unicode="&#xf3;" horiz-adv-x="1142" d="M66 461q0 207 143 347t362 140q217 0 360.5 -140t143.5 -347t-142 -346.5t-361.5 -139.5t-362.5 139.5t-143 346.5zM174 463q0 -172 113.5 -283.5t283.5 -111.5t285 112.5t115 282.5q0 172 -114 282.5t-286 110.5t-284.5 -110.5t-112.5 -282.5zM446 1059l209 348h152 l-269 -348h-92z" />
<glyph unicode="&#xf4;" horiz-adv-x="1142" d="M66 461q0 207 143 347t362 140q217 0 360.5 -140t143.5 -347t-142 -346.5t-361.5 -139.5t-362.5 139.5t-143 346.5zM174 463q0 -172 113.5 -283.5t283.5 -111.5t285 112.5t115 282.5q0 172 -114 282.5t-286 110.5t-284.5 -110.5t-112.5 -282.5zM295 1059l200 348h152 l200 -348h-92l-184 262l-184 -262h-92z" />
<glyph unicode="&#xf5;" horiz-adv-x="1142" d="M66 461q0 207 143 347t362 140q217 0 360.5 -140t143.5 -347t-142 -346.5t-361.5 -139.5t-362.5 139.5t-143 346.5zM174 463q0 -172 113.5 -283.5t283.5 -111.5t285 112.5t115 282.5q0 172 -114 282.5t-286 110.5t-284.5 -110.5t-112.5 -282.5zM282 1116q43 182 195 182 q37 0 53 -6l96 -32q29 -10 56 -11q61 0 96 74h82q-53 -182 -191 -182q-29 0 -65 10l-96 31q-25 8 -54 8q-59 0 -92 -74h-80z" />
<glyph unicode="&#xf6;" horiz-adv-x="1142" d="M66 461q0 207 143 347t362 140q217 0 360.5 -140t143.5 -347t-142 -346.5t-361.5 -139.5t-362.5 139.5t-143 346.5zM174 463q0 -172 113.5 -283.5t283.5 -111.5t285 112.5t115 282.5q0 172 -114 282.5t-286 110.5t-284.5 -110.5t-112.5 -282.5zM340 1137v161h141v-161 h-141zM661 1137v161h141v-161h-141z" />
<glyph unicode="&#xf7;" horiz-adv-x="1705" d="M254 571v80h1198v-80h-1198zM756 266q0 41 29.5 71t68.5 30q41 0 69.5 -30t28.5 -71t-28.5 -69.5t-69.5 -28.5t-69.5 27.5t-28.5 70.5zM756 956q0 41 28.5 70t69.5 29t69.5 -29t28.5 -70t-28.5 -70.5t-69.5 -29.5t-69.5 29.5t-28.5 70.5z" />
<glyph unicode="&#xf8;" horiz-adv-x="1142" d="M61 -94l158 198q-154 158 -153 357q0 207 143 347t362 140q145 0 267 -67l102 127h111l-142 -181q166 -143 166 -366q0 -207 -142 -346.5t-362 -139.5q-160 0 -282 76l-117 -145h-111zM174 463q0 -166 109 -281l497 619q-82 55 -196 55q-180 0 -295 -109.5t-115 -283.5z M354 127q109 -59 217 -59q170 0 285 112.5t115 282.5t-119 289z" />
<glyph unicode="&#xf9;" horiz-adv-x="1161" d="M39 829v95h256v-617q0 -123 45 -180t147 -57q190 0 367 231v528h-154v95h258v-830h152v-94h-256v176q-176 -201 -385 -201q-152 0 -215.5 79t-63.5 253v522h-151zM305 1407h152l209 -348h-92z" />
<glyph unicode="&#xfa;" horiz-adv-x="1161" d="M39 829v95h256v-617q0 -123 45 -180t147 -57q190 0 367 231v528h-154v95h258v-830h152v-94h-256v176q-176 -201 -385 -201q-152 0 -215.5 79t-63.5 253v522h-151zM416 1059l209 348h152l-269 -348h-92z" />
<glyph unicode="&#xfb;" horiz-adv-x="1161" d="M39 829v95h256v-617q0 -123 45 -180t147 -57q190 0 367 231v528h-154v95h258v-830h152v-94h-256v176q-176 -201 -385 -201q-152 0 -215.5 79t-63.5 253v522h-151zM265 1059l200 348h152l200 -348h-92l-184 262l-184 -262h-92z" />
<glyph unicode="&#xfc;" horiz-adv-x="1161" d="M39 829v95h256v-617q0 -123 45 -180t147 -57q190 0 367 231v528h-154v95h258v-830h152v-94h-256v176q-176 -201 -385 -201q-152 0 -215.5 79t-63.5 253v522h-151zM310 1137v161h141v-161h-141zM631 1137v161h141v-161h-141z" />
<glyph unicode="&#xfd;" horiz-adv-x="980" d="M-23 829v95h361v-95h-135l280 -643l287 643h-145v95h370v-95h-118l-523 -1161h156v-94h-414v94h152l184 414l-340 747h-115zM367 1059l209 348h152l-269 -348h-92z" />
<glyph unicode="&#xfe;" horiz-adv-x="1241" d="M55 -332h150v1712h-150v95h254v-725q156 199 400 198q201 0 330.5 -135t129.5 -350q0 -203 -137 -346q-133 -139 -332 -140q-248 0 -391 220v-529h160v-94h-414v94zM313 465q0 -164 112 -277.5t269 -113.5q156 0 261.5 113.5t105.5 277.5q0 176 -103.5 283.5 t-271.5 107.5q-154 0 -263.5 -112.5t-109.5 -278.5z" />
<glyph unicode="&#xff;" horiz-adv-x="980" d="M-23 829v95h361v-95h-135l280 -643l287 643h-145v95h370v-95h-118l-523 -1161h156v-94h-414v94h152l184 414l-340 747h-115zM261 1137v161h141v-161h-141zM582 1137v161h141v-161h-141z" />
<glyph unicode="&#x131;" horiz-adv-x="512" d="M33 0v94h174v735h-164v95h268v-830h156v-94h-434z" />
<glyph unicode="&#x152;" horiz-adv-x="2150" d="M76 735q0 348 213 544t602 196h1077v-363h-119v262h-647v-543h494v-100h-494v-631h647v256h119v-356h-1077q-389 0 -602 194.5t-213 540.5zM197 735q0 -303 180 -468t516 -165q111 0 150.5 27t39.5 109v1005q0 82 -39.5 107.5t-150.5 25.5q-340 0 -518 -165t-178 -476z " />
<glyph unicode="&#x153;" horiz-adv-x="1990" d="M66 461q0 207 143 347t362 140q293 0 453 -258q154 258 442 258q197 0 326 -142t131 -374h-852q8 -162 121 -263t274 -101q90 0 170 52t136 148h114q-154 -293 -440 -293q-266 0 -432 246q-156 -246 -443 -246q-219 0 -362 139.5t-143 346.5zM174 463 q0 -172 113.5 -283.5t283.5 -111.5t285 112.5t115 282.5q0 172 -114 282.5t-286 110.5t-284.5 -110.5t-112.5 -282.5zM1075 518h740q-27 156 -122.5 247t-226.5 91q-156 0 -261 -90t-130 -248z" />
<glyph unicode="&#x178;" horiz-adv-x="1251" d="M-8 1374v101h461v-101h-195l365 -633l362 633h-186v101h461v-101h-146l-430 -735v-539h190v-100h-497v100h188v551l-426 723h-147zM396 1692v161h141v-161h-141zM717 1692v161h141v-161h-141z" />
<glyph unicode="&#x2c6;" d="M236 1059l200 348h152l200 -348h-92l-184 262l-184 -262h-92z" />
<glyph unicode="&#x2dc;" d="M223 1116q43 182 195 182q37 0 53 -6l96 -32q29 -10 56 -11q61 0 96 74h82q-53 -182 -191 -182q-29 0 -65 10l-96 31q-25 8 -54 8q-59 0 -92 -74h-80z" />
<glyph unicode="&#x3bc;" horiz-adv-x="1093" d="M-111 -424l316 1487h121l-123 -590q-16 -82 -17 -141q0 -125 59.5 -191.5t174.5 -66.5q125 0 218 107.5t138 314.5l125 567h121l-166 -787q-25 -117 -25 -135q0 -63 68 -63q16 0 39 2l-18 -96q-57 -12 -76 -13q-133 0 -133 127q0 12 4 45q-90 -172 -312 -172 q-98 0 -169.5 45t-104.5 127l-119 -567h-121z" />
<glyph unicode="&#x2000;" horiz-adv-x="985" />
<glyph unicode="&#x2001;" horiz-adv-x="1972" />
<glyph unicode="&#x2002;" horiz-adv-x="985" />
<glyph unicode="&#x2003;" horiz-adv-x="1972" />
<glyph unicode="&#x2004;" horiz-adv-x="657" />
<glyph unicode="&#x2005;" horiz-adv-x="491" />
<glyph unicode="&#x2006;" horiz-adv-x="327" />
<glyph unicode="&#x2007;" horiz-adv-x="327" />
<glyph unicode="&#x2008;" horiz-adv-x="245" />
<glyph unicode="&#x2009;" horiz-adv-x="393" />
<glyph unicode="&#x200a;" horiz-adv-x="108" />
<glyph unicode="&#x2010;" horiz-adv-x="634" d="M68 420v102h501v-102h-501z" />
<glyph unicode="&#x2011;" horiz-adv-x="634" d="M68 420v102h501v-102h-501z" />
<glyph unicode="&#x2012;" horiz-adv-x="634" d="M68 420v102h501v-102h-501z" />
<glyph unicode="&#x2013;" d="M0 436v72h1024v-72h-1024z" />
<glyph unicode="&#x2014;" horiz-adv-x="2048" d="M0 436v72h2048v-72h-2048z" />
<glyph unicode="&#x2018;" horiz-adv-x="514" d="M139 1069l123 406h115l-123 -406h-115z" />
<glyph unicode="&#x2019;" horiz-adv-x="514" d="M139 1069l123 406h115l-123 -406h-115z" />
<glyph unicode="&#x201a;" horiz-adv-x="514" d="M139 -188l123 405h115l-123 -405h-115z" />
<glyph unicode="&#x201c;" horiz-adv-x="907" d="M139 1069l123 406h115l-123 -406h-115zM532 1069l123 406h117l-125 -406h-115z" />
<glyph unicode="&#x201d;" horiz-adv-x="907" d="M139 1069l123 406h115l-123 -406h-115zM532 1069l123 406h117l-125 -406h-115z" />
<glyph unicode="&#x201e;" horiz-adv-x="907" d="M139 -188l123 405h115l-123 -405h-115zM532 -188l123 405h117l-125 -405h-115z" />
<glyph unicode="&#x2022;" horiz-adv-x="1208" d="M307 762q0 123 87 209t210 86q121 0 208 -86t87 -209q0 -121 -87 -209t-210 -88t-209 87t-86 210z" />
<glyph unicode="&#x2026;" horiz-adv-x="2048" d="M233 82q0 45 31 76.5t78 31.5t78 -30.5t31 -77.5q0 -45 -31 -76t-78 -31t-78 31t-31 76zM915 82q0 45 32 76.5t77 31.5q47 0 78 -30.5t31 -77.5q0 -45 -31 -76t-78 -31t-78 31t-31 76zM1599 82q0 45 32 76.5t77 31.5q47 0 78 -30.5t31 -77.5q0 -45 -31 -76t-78 -31 t-78 31t-31 76z" />
<glyph unicode="&#x202f;" horiz-adv-x="393" />
<glyph unicode="&#x2039;" horiz-adv-x="634" d="M131 461l258 313h135l-258 -313l258 -311h-135z" />
<glyph unicode="&#x203a;" horiz-adv-x="634" d="M113 150l256 311l-256 313h133l258 -313l-258 -311h-133z" />
<glyph unicode="&#x205f;" horiz-adv-x="491" />
<glyph unicode="&#x20ac;" horiz-adv-x="1048" d="M0 543l25 82h104q-2 37 -2 118q0 76 2 111h-129l25 82h110q27 274 127 401t293 127q90 0 174 -47t121 -127v146h102v-398h-92q-20 145 -109 236.5t-196 91.5q-150 0 -218.5 -102.5t-86.5 -327.5h547l-25 -82h-528q-2 -35 -2 -111q0 -82 2 -118h430l-25 -82h-399 q23 -260 102.5 -365.5t222.5 -105.5q238 0 289 274h105q-35 -176 -133.5 -275.5t-260.5 -99.5q-207 0 -311 133.5t-129 438.5h-135z" />
<glyph unicode="&#x2122;" horiz-adv-x="1705" d="M274 1403v51h420v-51h-174v-479h-67v479h-179zM825 924v530h101l174 -440l162 440h102v-530h-59v479l-181 -479h-49l-190 479v-479h-60z" />
<glyph unicode="&#xe000;" horiz-adv-x="925" d="M0 925h925v-925h-925v925z" />
<glyph unicode="&#xfb01;" horiz-adv-x="1075" d="M43 0v94h166v735h-166v95h166v278q0 145 57.5 209t194.5 64q39 0 88 -7v-90q-45 6 -82 6q-88 0 -121 -42t-33 -146v-272h181v-95h-181v-735h181v-94h-451zM596 0v94h174v735h-164v95h268v-830h156v-94h-434zM764 1112v240h106v-240h-106z" />
<glyph unicode="&#xfb02;" horiz-adv-x="1075" d="M43 0v94h166v735h-166v95h166v278q0 145 57.5 209t194.5 64q39 0 88 -7v-90q-45 6 -82 6q-88 0 -121 -42t-33 -146v-272h181v-95h-181v-735h181v-94h-451zM596 0v94h174v1286h-164v95h268v-1381h156v-94h-434z" />
<glyph unicode="&#xfb03;" horiz-adv-x="1638" d="M1159 0v94h174v735h-164v95h268v-830h156v-94h-434zM1327 1112v240h106v-240h-106zM606 0v94h166v735h-166v95h166v278q0 145 57.5 209t194.5 64q39 0 88 -7v-90q-45 6 -82 6q-88 0 -121 -42t-33 -146v-272h181v-95h-181v-735h181v-94h-451zM43 0v94h166v735h-166v95h166 v278q0 145 57.5 209t194.5 64q39 0 88 -7v-90q-45 6 -82 6q-88 0 -121 -42t-33 -146v-272h181v-95h-181v-735h181v-94h-451z" />
<glyph unicode="&#xfb04;" horiz-adv-x="1638" d="M1159 0v94h174v1286h-164v95h268v-1381h156v-94h-434zM606 0v94h166v735h-166v95h166v278q0 145 57.5 209t194.5 64q39 0 88 -7v-90q-45 6 -82 6q-88 0 -121 -42t-33 -146v-272h181v-95h-181v-735h181v-94h-451zM43 0v94h166v735h-166v95h166v278q0 145 57.5 209 t194.5 64q39 0 88 -7v-90q-45 6 -82 6q-88 0 -121 -42t-33 -146v-272h181v-95h-181v-735h181v-94h-451z" />
</font>
</defs>
</svg>
