<?xml version="1.0" standalone="no"?>
<!DOCTYPE svg PUBLIC "-//W3C//DTD SVG 1.1//EN" "http://www.w3.org/Graphics/SVG/1.1/DTD/svg11.dtd" >
<svg xmlns="http://www.w3.org/2000/svg">
<metadata>
This is a custom SVG webfont generated by Font Squirrel.
Copyright   : Copyright 19901999 as an unpublished work by Bitstream Inc  All rights reserved  Confidential
</metadata>
<defs>
<font id="GeometricSlabserif703Bold" horiz-adv-x="1095" >
<font-face units-per-em="2048" ascent="1638" descent="-410" />
<missing-glyph horiz-adv-x="546" />
<glyph unicode=" "  horiz-adv-x="546" />
<glyph unicode="&#x09;" horiz-adv-x="546" />
<glyph unicode="&#xa0;" horiz-adv-x="546" />
<glyph unicode="!" horiz-adv-x="706" d="M170 158q0 78 52 129t130 51t131.5 -52.5t53.5 -128t-54.5 -129t-130.5 -53.5q-80 0 -131 52.5t-51 130.5zM197 1475h313l-55 -1031h-203z" />
<glyph unicode="&#x22;" horiz-adv-x="643" d="M86 879v557h164v-557h-164zM395 879v557h164v-557h-164z" />
<glyph unicode="#" horiz-adv-x="1574" d="M70 428l61 172h297l90 252h-315l61 172h316l155 436h191l-154 -436h250l156 436h190l-154 -436h291l-59 -172h-293l-90 -252h309l-61 -172h-307l-156 -434h-191l156 434h-252l-158 -434h-190l156 434h-299zM618 598h256l91 254h-256z" />
<glyph unicode="$" d="M109 2v449h155q45 -199 219 -263v426q-362 98 -362 383q0 164 98 265.5t264 109.5v117h127v-121q133 -12 197 -125l-6 119h149v-391h-143q-27 90 -79 148.5t-118 72.5v-371q219 -59 324.5 -160.5t105.5 -259.5q0 -174 -121.5 -293.5t-308.5 -125.5v-168h-127v176 q-156 25 -229 162l8 -150h-153zM344 1032.5q0 -61.5 37 -107.5t102 -67v338q-66 -14 -102.5 -58t-36.5 -105.5zM610 178q94 12 147.5 66.5t53.5 132.5q0 74 -48 121t-153 84v-404z" />
<glyph unicode="%" horiz-adv-x="1816" d="M70 1075.5q0 151.5 105.5 256t254.5 104.5q152 0 257.5 -103.5t105.5 -257.5q0 -152 -106.5 -257t-256.5 -105q-147 0 -253.5 105.5t-106.5 257zM266 1075.5q0 -69.5 48 -118t118 -48.5t117 48.5t47 117.5q0 72 -48 119t-115.5 47t-117 -48t-49.5 -117.5zM410 -29 l852 1493h143l-852 -1493h-143zM1022 362.5q0 151.5 106.5 256t255.5 104.5q152 0 257.5 -103.5t105.5 -257.5q0 -152 -106.5 -257t-256.5 -105q-147 0 -254.5 105.5t-107.5 257zM1221 362.5q0 -69.5 47 -117.5t116.5 -48t116.5 48t47 117q0 72 -48 119t-115.5 47 t-115.5 -48t-48 -117.5z" />
<glyph unicode="&#x26;" horiz-adv-x="1517" d="M123 367q0 121 63.5 215t206.5 209q-182 207 -182 362q0 141 105.5 243.5t252.5 102.5q139 0 236.5 -94t97.5 -240q0 -195 -209 -374l283 -312q100 145 115 312h-113v180h428v-180h-129q-8 -238 -168 -461l119 -125h178v-205h-311l-140 160q-201 -188 -444 -189 q-170 0 -279.5 113t-109.5 283zM354 373q0 -80 52.5 -130t140.5 -50q152 0 274 116l-297 326q-170 -139 -170 -262zM418 1174q0 -104 141 -252q147 129 148 245q0 70 -41 115t-103 45q-63 0 -104 -42.5t-41 -110.5z" />
<glyph unicode="'" horiz-adv-x="333" d="M86 879v557h164v-557h-164z" />
<glyph unicode="(" horiz-adv-x="649" d="M109 571.5q0 497.5 348 931.5l172 -125q-289 -367 -289 -807q0 -213 76 -422.5t217 -379.5l-176 -127q-348 432 -348 929.5z" />
<glyph unicode=")" horiz-adv-x="649" d="M16 -231q141 170 217 379.5t76 422.5q0 440 -289 807l173 125q348 -434 348 -931.5t-348 -929.5z" />
<glyph unicode="*" horiz-adv-x="1138" d="M141 1149l74 192l285 -149l-29 311h207l-35 -311l281 149l73 -192l-321 -92l237 -209l-153 -135l-193 256l-188 -256l-154 135l238 209z" />
<glyph unicode="+" horiz-adv-x="1705" d="M254 528v166h514v527h170v-527h514v-166h-514v-528h-170v528h-514z" />
<glyph unicode="," horiz-adv-x="546" d="M35 -217l135 457h260l-149 -457h-246z" />
<glyph unicode="-" horiz-adv-x="630" d="M61 371v211h508v-211h-508z" />
<glyph unicode="." horiz-adv-x="546" d="M90 158q0 78 53.5 129t130.5 51q76 0 129.5 -52.5t53.5 -128t-53.5 -129t-129.5 -53.5q-80 0 -132 52.5t-52 130.5z" />
<glyph unicode="/" horiz-adv-x="681" d="M4 -190l504 1693h137l-504 -1693h-137z" />
<glyph unicode="0" d="M94 537v364q0 84 2 129t17.5 110.5t46.5 116.5q125 207 387 207q264 0 389 -207q63 -104 63 -315v-453q0 -172 -43 -266q-53 -119 -160.5 -185.5t-248.5 -66.5q-262 0 -387 209q-31 51 -46.5 116.5t-17.5 110t-2 130.5zM342 557q0 -188 42 -275t163 -87q119 0 163 87 t44 275v324q0 188 -43 275t-164 87q-119 0 -162 -88t-43 -276v-322z" />
<glyph unicode="1" d="M264 0v199h168v1038h-156v199h404v-1237h166v-199h-582z" />
<glyph unicode="2" d="M86 0v199l467 516q205 227 205 360q0 82 -52.5 128t-148.5 46q-125 0 -174 -79.5t-49 -260.5v-41h-236q-2 25 -2 70q0 526 465 526q207 0 327 -107.5t120 -285.5q0 -129 -69 -235.5t-216 -255.5l-361 -365h424v205h236v-420h-936z" />
<glyph unicode="3" d="M80 453q0 10 1 26.5t1 26.5h244q4 -160 58 -235.5t167 -75.5q92 0 153.5 65.5t61.5 159.5q0 109 -69.5 170t-192.5 61h-23v178q6 0 17.5 -1t15.5 -1q113 0 171 58.5t58 167.5q0 90 -51 142t-137 52q-119 0 -167 -77.5t-48 -258.5v-14h-242q0 8 -1 32.5t-1 39.5 q0 238 119 367.5t332 129.5q207 0 324.5 -111.5t117.5 -297.5q0 -119 -53 -200t-150 -109q104 -25 165 -112t61 -214q0 -207 -123 -328t-338 -121q-231 0 -351 122t-120 358z" />
<glyph unicode="4" d="M86 342v186l553 908h238v-914h172v-180h-172v-160h172v-182h-607v182h203v160h-559zM301 522h344v357q0 113 25 284z" />
<glyph unicode="5" d="M84 414q0 6 1 19t1 22h238v-29q0 -113 52 -172t148 -59q111 0 173.5 73.5t62.5 202.5q0 135 -78 197.5t-244 62.5q-90 0 -252 -18v725h705v-217h-461v-271q31 2 80 2q236 0 368 -132t132 -357q0 -221 -129 -356.5t-344 -135.5q-207 0 -330 119t-123 324z" />
<glyph unicode="6" d="M104 520v432q0 252 118 382t341 130q201 0 313.5 -108.5t112.5 -304.5v-21h-241q-12 217 -189 217q-127 0 -168 -84t-41 -270v-105q137 104 271 105q174 0 287.5 -125t113.5 -330q0 -209 -124 -338t-331 -129q-463 0 -463 549zM352 432.5q0 -104.5 60.5 -171t148.5 -66.5 t149.5 66.5t61.5 171t-60.5 171t-150.5 66.5q-88 0 -148.5 -66.5t-60.5 -171z" />
<glyph unicode="7" d="M109 967v469h911v-209l-528 -1227h-265l539 1221h-422v-254h-235z" />
<glyph unicode="8" d="M88 381q0 240 219 362q-201 102 -201 322q0 176 124 288.5t316.5 112.5t317.5 -112.5t125 -288.5q0 -219 -203 -322q221 -125 222 -362q0 -174 -129 -292t-332 -118t-331 118t-128 292zM330 408q0 -94 63.5 -158t155.5 -64q90 0 153.5 63.5t63.5 158t-62.5 159 t-154.5 64.5t-155.5 -63.5t-63.5 -159.5zM348 1049q0 -86 57.5 -145.5t141.5 -59.5t143.5 59.5t59.5 145.5t-59.5 146t-143.5 60t-141.5 -59t-57.5 -147z" />
<glyph unicode="9" d="M74 995q0 209 124 339t330 130q463 0 463 -549v-434q0 -252 -117.5 -381t-341.5 -129q-203 0 -314.5 107.5t-111.5 304.5v20h242q6 -111 52 -163t137 -52q127 0 167.5 83t40.5 270v104q-135 -102 -270 -102q-174 0 -287.5 123.5t-113.5 328.5zM322 1003.5 q0 -104.5 60 -171t150 -66.5q88 0 149.5 66.5t61.5 171t-61 171t-149.5 66.5t-149.5 -66.5t-61 -171z" />
<glyph unicode=":" horiz-adv-x="673" d="M154 158q0 78 52 129t130 51q76 0 129 -52.5t53 -128t-53 -129t-129 -53.5q-80 0 -131 52.5t-51 130.5zM154 794.5q0 77.5 52 130t130 52.5q76 0 129 -53.5t53 -129t-53 -128t-129 -52.5q-80 0 -131 51.5t-51 129z" />
<glyph unicode=";" horiz-adv-x="673" d="M70 -217l137 457h258l-150 -457h-245zM162 794.5q0 77.5 53 130t131 52.5q76 0 129 -53.5t53 -129t-53 -128t-129 -52.5q-80 0 -132 51.5t-52 129z" />
<glyph unicode="&#x3c;" horiz-adv-x="1705" d="M264 530v160l1178 486v-185l-934 -381l934 -381v-182z" />
<glyph unicode="=" horiz-adv-x="1705" d="M254 322v165h1198v-165h-1198zM254 733v168h1198v-168h-1198z" />
<glyph unicode="&#x3e;" horiz-adv-x="1705" d="M264 47v182l934 381l-934 381v185l1178 -486v-160z" />
<glyph unicode="?" horiz-adv-x="1218" d="M172 1073q18 209 132 319.5t310 110.5q199 0 317 -110.5t118 -292.5q0 -154 -88.5 -259.5t-247.5 -138.5v-258h-238v439q14 0 29 -2h16q141 0 215 60t74 169q0 84 -54.5 134t-146.5 50t-147 -58t-60 -163h-229zM403 158q0 78 52.5 129t130.5 51q76 0 129 -52.5t53 -128 t-53 -129t-129 -53.5q-80 0 -131.5 52.5t-51.5 130.5z" />
<glyph unicode="@" horiz-adv-x="2048" d="M98 522q0 334 205 586q299 365 813 365q348 0 570 -173q264 -203 264 -536q0 -336 -250 -539q-141 -113 -318 -112q-209 0 -208 166v4q-106 -168 -304 -168q-152 0 -232.5 86t-80.5 250q0 236 139.5 396.5t331.5 160.5q172 0 248 -142l55 107h154l-148 -586 q-8 -41 -8 -49q0 -39 26.5 -61.5t69.5 -22.5q109 0 213 115q147 158 148 393q0 252 -185.5 410.5t-490.5 158.5q-276 0 -471 -125q-182 -115 -279.5 -292t-97.5 -394q0 -311 210 -498.5t558 -187.5q342 0 615 191l67 -99q-301 -227 -674 -227q-387 0 -632 190 q-308 234 -308 633zM741 444q0 -98 45 -151t129 -53q88 0 162 66.5t101 172.5l55 228q-29 176 -184 176q-127 0 -217.5 -128.5t-90.5 -310.5z" />
<glyph unicode="A" horiz-adv-x="1402" d="M-6 0v205h117l372 1065h-159v205h755v-205h-170l365 -1065h135v-205h-559v205h158l-90 268h-463l-90 -268h157v-205h-528zM518 678h334l-166 500z" />
<glyph unicode="B" horiz-adv-x="1255" d="M51 0v205h158v1065h-158v205h533q242 0 367.5 -97.5t125.5 -277.5q0 -233 -250 -301q315 -76 316 -369q0 -430 -559 -430h-533zM473 205h111q156 0 225.5 55t69.5 189q0 131 -71 187t-224 56h-111v-487zM473 883h111q106 0 166.5 51t60.5 141q0 94 -58.5 144.5 t-168.5 50.5h-111v-387z" />
<glyph unicode="C" horiz-adv-x="1554" d="M66 737q0 340 214 553t537 213q270 0 400 -151l-5 123h220v-492h-220q-45 133 -143 203.5t-235 70.5q-221 0 -357.5 -143t-136.5 -376.5t136 -376t358 -142.5q139 0 233 62.5t162 197.5h256q-59 -233 -235.5 -370.5t-415.5 -137.5q-334 0 -551 217t-217 549z" />
<glyph unicode="D" horiz-adv-x="1533" d="M51 0v205h158v1065h-158v205h592q406 0 616.5 -189.5t210.5 -548t-210.5 -548t-616.5 -189.5h-592zM473 205h178q270 0 408.5 136t138.5 396t-138 396.5t-409 136.5h-178v-1065z" />
<glyph unicode="E" horiz-adv-x="1280" d="M51 0v205h158v1065h-158v205h1123v-402h-230v195h-471v-369h395v-221h-395v-473h463v231h238v-436h-1123z" />
<glyph unicode="F" horiz-adv-x="1222" d="M51 0v205h158v1065h-158v205h1123v-402h-230v195h-471v-369h420v-221h-420v-473h193v-205h-615z" />
<glyph unicode="G" horiz-adv-x="1705" d="M61 737q0 334 216.5 550t556.5 216q276 0 417 -141v113h217v-492h-217q-121 270 -413 270q-229 0 -362.5 -142t-133.5 -374q0 -225 141.5 -370.5t350.5 -145.5q289 0 444 258h-338v213h705v-213h-154v-479h-193l-8 168q-178 -197 -469 -197q-322 0 -541 218t-219 548z " />
<glyph unicode="H" horiz-adv-x="1533" d="M51 0v205h158v1065h-158v205h580v-205h-158v-371h588v371h-158v205h578v-205h-156v-1065h156v-205h-578v205h158v457h-588v-457h158v-205h-580z" />
<glyph unicode="I" horiz-adv-x="681" d="M51 0v205h158v1065h-158v205h580v-205h-158v-1065h158v-205h-580z" />
<glyph unicode="J" horiz-adv-x="681" d="M35 20q35 -2 61 -2q121 0 121 134v1118h-178v205h600v-205h-156v-1133q0 -197 -89 -287t-290 -90q-45 0 -69 2v258z" />
<glyph unicode="K" horiz-adv-x="1327" d="M51 0v205h158v1065h-158v205h580v-205h-158v-482l406 482h-154v205h557v-205h-104l-424 -490l422 -575h137v-205h-588v205h147l-399 545v-545h158v-205h-580z" />
<glyph unicode="L" horiz-adv-x="1118" d="M51 0v205h158v1065h-158v205h602v-207h-180v-1063h369v231h239v-436h-1030z" />
<glyph unicode="M" horiz-adv-x="1812" d="M51 0v205h158v1065h-158v205h574l290 -846l293 846h553v-205h-157v-1065h157v-205h-594v205h176v997l-364 -1005h-141l-369 1005v-997h176v-205h-594z" />
<glyph unicode="N" horiz-adv-x="1488" d="M51 0v205h158v1065h-158v205h451l526 -963v758h-158v205h566v-205h-158v-1299h-223l-594 1116v-882h155v-205h-565z" />
<glyph unicode="O" horiz-adv-x="1669" d="M61 737q0 326 220.5 546t552.5 220q309 0 516 -186q258 -229 258 -580q0 -305 -203 -524q-223 -242 -571 -242q-332 0 -552.5 221t-220.5 545zM342 737.5q0 -225.5 142.5 -371t349.5 -145.5q211 0 352 145.5t141 370.5q0 227 -142.5 371.5t-350.5 144.5 q-205 0 -348.5 -145t-143.5 -370.5z" />
<glyph unicode="P" horiz-adv-x="1200" d="M51 0v205h158v1065h-158v205h504q309 0 467 -120t158 -351q0 -229 -158 -349t-467 -120h-82v-330h191v-205h-613zM473 737h82q358 0 358 269q0 137 -88 201.5t-270 64.5h-82v-535z" />
<glyph unicode="Q" horiz-adv-x="1669" d="M61 737q0 326 220.5 546t552.5 220q305 0 516 -186q258 -227 258 -580q0 -221 -111 -405.5t-299 -274.5l41 -75h203v-238h-338l-117 240q-92 -12 -153 -13q-303 0 -515 187q-258 227 -258 579zM342 737q0 -229 140.5 -372.5t351.5 -143.5h32l-69 144l190 104l96 -188 q115 59 179.5 180t64.5 276q0 229 -141.5 372.5t-351.5 143.5q-209 0 -350.5 -144.5t-141.5 -371.5z" />
<glyph unicode="R" horiz-adv-x="1327" d="M51 0v205h158v1065h-158v205h608q270 0 401.5 -89.5t131.5 -289.5q0 -242 -252 -326q111 -14 160 -74.5t49 -181.5v-309h141v-205h-407v371q0 172 -49.5 238.5t-223.5 66.5h-137v-471h178v-205h-600zM473 881h193q135 0 198.5 45t63.5 149.5t-63.5 149.5t-198.5 45h-193 v-389z" />
<glyph unicode="S" horiz-adv-x="1282" d="M131 1081q0 180 127 301t317 121q209 0 338 -125v97h205v-439h-205q-70 260 -297 260q-98 0 -157.5 -53t-59.5 -133q0 -72 41 -112t133 -66l179 -51q236 -68 342 -169.5t106 -283.5q0 -207 -125 -332t-334 -125q-240 0 -387 154v-125h-213v500h213q84 -324 351 -324 q102 0 170.5 64.5t68.5 156.5q0 86 -62.5 138.5t-197.5 91.5l-168 47q-197 55 -291 151t-94 256z" />
<glyph unicode="T" horiz-adv-x="1222" d="M51 1057v418h1120v-418h-237v213h-191v-1065h191v-205h-645v205h190v1065h-190v-213h-238z" />
<glyph unicode="U" horiz-adv-x="1521" d="M78 1270v205h577v-205h-155v-733q0 -166 56 -241t206 -75q145 0 202.5 75t57.5 241v733h-156v205h578v-205h-156v-703q0 -137 -14 -225t-64 -166q-129 -205 -448 -205q-291 0 -430 172q-59 74 -79 172.5t-20 251.5v703h-155z" />
<glyph unicode="V" horiz-adv-x="1351" d="M23 1270v205h516v-205h-133l274 -811l272 811h-139v205h500v-205h-101l-448 -1299h-178l-459 1299h-104z" />
<glyph unicode="W" horiz-adv-x="1937" d="M-8 1270v205h510v-205h-140l246 -797l234 797h-133v205h520v-205h-135l249 -803l254 803h-163v205h512v-205h-105l-422 -1299h-172l-280 920l-277 -920h-174l-422 1299h-102z" />
<glyph unicode="X" horiz-adv-x="1351" d="M39 0v205h129l371 524l-361 541h-127v205h541v-205h-113l209 -334l213 334h-121v205h512v-205h-104l-369 -514l373 -551h129v-205h-551v205h119l-215 346l-221 -346h122v-205h-536z" />
<glyph unicode="Y" horiz-adv-x="1343" d="M27 1270v205h538v-205h-116l225 -367l221 367h-133v205h536v-205h-118l-383 -590v-475h180v-205h-627v205h180v475l-387 590h-116z" />
<glyph unicode="Z" horiz-adv-x="1329" d="M121 -4v192l756 1080h-486v-201h-241v403h1048v-180l-760 -1089h518v245h242v-450h-1077z" />
<glyph unicode="[" horiz-adv-x="743" d="M197 -174v1649h479v-181h-242v-1288h242v-180h-479z" />
<glyph unicode="\" horiz-adv-x="681" d="M20 1503h140l502 -1693h-138z" />
<glyph unicode="]" horiz-adv-x="743" d="M70 6h241v1288h-241v181h479v-1649h-479v180z" />
<glyph unicode="^" horiz-adv-x="2048" d="M418 899l497 561h218l495 -561h-207l-397 397l-399 -397h-207z" />
<glyph unicode="_" horiz-adv-x="1024" d="M0 -311h1024v-172h-1024v172z" />
<glyph unicode="`" horiz-adv-x="1024" d="M233 1436h222l204 -349h-131z" />
<glyph unicode="a" horiz-adv-x="1269" d="M53 477q0 211 137.5 355.5t346.5 144.5q168 0 299 -127v102h370v-198h-133v-555h133v-199h-370v102q-121 -125 -299 -125q-211 0 -347.5 140.5t-136.5 359.5zM295 475q0 -125 77 -205t197 -80q115 0 195 79t80 206t-80 207t-195 80q-121 0 -197.5 -80t-76.5 -207z" />
<glyph unicode="b" horiz-adv-x="1261" d="M55 0v199h133v1077h-133v199h369v-625q131 127 301 127q209 0 346 -144.5t137 -355.5q0 -219 -136 -359.5t-347 -140.5q-180 0 -301 125v-102h-369zM418 475q0 -125 78.5 -205t195.5 -80t196 79t79 206t-80 207t-194.5 80t-194.5 -80t-80 -207z" />
<glyph unicode="c" horiz-adv-x="1056" d="M51 477q0 219 136.5 360.5t336.5 141.5q152 0 254 -92v65h187v-319h-152q-61 78 -122.5 110.5t-149.5 32.5q-113 0 -182.5 -80t-69.5 -219q0 -125 75.5 -210t190.5 -85q90 0 157.5 36t143.5 122l148 -125q-184 -240 -447 -240q-219 0 -362.5 142.5t-143.5 359.5z" />
<glyph unicode="d" horiz-adv-x="1255" d="M53 477q0 211 137.5 355.5t346.5 144.5q168 0 299 -127v426h-131v199h368v-1276h133v-199h-370v102q-121 -125 -299 -125q-211 0 -347.5 140.5t-136.5 359.5zM295 475q0 -125 79 -205t195.5 -80t195.5 79t79 206t-80 207t-194.5 80t-194.5 -80t-80 -207z" />
<glyph unicode="e" horiz-adv-x="1140" d="M53 475q0 219 147.5 359.5t377 140.5t368.5 -148.5t139 -396.5v-24h-788q12 -109 87 -168.5t202 -59.5q168 0 239 103h234q-41 -145 -166 -225.5t-313 -80.5q-240 0 -383.5 139.5t-143.5 360.5zM297 573h553q-59 201 -272 201q-109 0 -182.5 -53.5t-98.5 -147.5z" />
<glyph unicode="f" horiz-adv-x="667" d="M45 0v199h158v555h-158v198h158v129q0 123 11 191.5t49 118t104.5 67t183.5 17.5q37 0 65 -2v-189h-53q-82 0 -103.5 -30.5t-21.5 -118.5v-183h166v-198h-166v-555h166v-199h-559z" />
<glyph unicode="g" horiz-adv-x="1261" d="M53 477q0 211 137.5 355.5t346.5 144.5q168 0 299 -127v102h370v-198h-133v-588v-78q0 -231 -57 -319q-125 -195 -424 -195q-260 0 -438 104v230q215 -129 368 -129q162 0 238 56t76 177v90q-121 -125 -299 -125q-211 0 -347.5 140.5t-136.5 359.5zM295 475 q0 -125 79 -205t195.5 -80t195.5 79t79 206t-80 207t-194.5 80t-194.5 -80t-80 -207z" />
<glyph unicode="h" horiz-adv-x="1216" d="M47 0v199h133v1077h-133v199h371v-652q164 154 338 154q152 0 223.5 -82t71.5 -250v-446h133v-199h-504v199h133v393q0 78 -39 120t-110 42q-125 0 -246 -144v-411h133v-199h-504z" />
<glyph unicode="i" horiz-adv-x="598" d="M45 0v199h145v555h-143v198h381v-753h137v-199h-520zM113 1108v252h315v-252h-315z" />
<glyph unicode="j" horiz-adv-x="569" d="M35 -213q104 14 129.5 58t25.5 169v740h-143v198h381v-886q0 -78 -1 -118t-6 -97.5t-15.5 -85t-29 -65.5t-47 -55.5t-69.5 -36t-96 -24.5t-129 -8v211zM113 1108v252h315v-252h-315z" />
<glyph unicode="k" horiz-adv-x="1138" d="M41 0v199h145v1077h-143v199h379v-959l303 238h-113v198h488v-198h-113l-315 -258l325 -297h103v-199h-475v199h84l-287 266v-266h115v-199h-496z" />
<glyph unicode="l" horiz-adv-x="591" d="M41 0v199h145v1077h-143v199h379v-1276h139v-199h-520z" />
<glyph unicode="m" horiz-adv-x="1792" d="M57 0v199h133v555h-133v198h371v-129q137 154 303 154q197 0 268 -170q131 170 326 170q158 0 230.5 -81t72.5 -251v-446h133v-199h-501v199h137v338q0 115 -33 166t-129 51q-115 0 -211 -109v-446h135v-199h-500v199h136v338q0 117 -32 167t-132 50q-121 0 -209 -144 v-411h137v-199h-502z" />
<glyph unicode="n" horiz-adv-x="1224" d="M57 0v199h133v555h-133v198h371v-129q162 154 336 154q297 0 297 -332v-446h133v-199h-504v199h133v393q0 78 -39 120t-110 42q-125 0 -246 -144v-411h133v-199h-504z" />
<glyph unicode="o" horiz-adv-x="1157" d="M51 477q0 209 149.5 354.5t377 145.5t377 -144.5t149.5 -355.5q0 -209 -149.5 -353t-376.5 -144q-225 0 -376 143t-151 354zM297 477q0 -127 82 -210t198.5 -83t198.5 82t82 211t-81 212t-199.5 83t-199.5 -83t-81 -212z" />
<glyph unicode="p" horiz-adv-x="1263" d="M57 -227h133v981h-133v198h371v-102q131 127 299 127q209 0 346 -144.5t137 -355.5q0 -219 -135 -359.5t-348 -140.5q-164 0 -299 113v-317h141v-199h-512v199zM420 475q0 -125 79 -205t195.5 -80t195.5 79t79 206t-80 207t-194.5 80t-194.5 -80t-80 -207z" />
<glyph unicode="q" horiz-adv-x="1263" d="M53 477q0 211 137.5 355.5t346.5 144.5q168 0 299 -127v102h370v-198h-133v-981h133v-199h-512v199h142v317q-135 -113 -299 -113q-213 0 -348.5 140.5t-135.5 359.5zM295 475q0 -127 79 -206t195.5 -79t195.5 80t79 205q0 127 -80 207t-194.5 80t-194.5 -80t-80 -207z " />
<glyph unicode="r" horiz-adv-x="825" d="M57 0v199h133v555h-133v198h371v-137l12 4q41 150 174 150q72 0 120 -48.5t48 -122t-47 -120.5t-123 -47q-117 0 -170 131l-14 -6v-557h133v-199h-504z" />
<glyph unicode="s" horiz-adv-x="1052" d="M100 684q0 135 95.5 214t250.5 79q172 0 267 -90l2 65h178v-301h-193q-53 156 -225 156q-70 0 -109.5 -27.5t-39.5 -72.5q0 -57 38.5 -78t145.5 -39q10 -2 14 -2l109 -19q168 -31 250 -102.5t82 -192.5q0 -129 -99.5 -214t-263.5 -85q-162 0 -311 95l-2 -70h-178v332h186 q74 -180 291 -180q66 0 104.5 31.5t38.5 80.5q0 51 -38 70.5t-128 36.5l-157 26q-156 29 -232 98.5t-76 188.5z" />
<glyph unicode="t" horiz-adv-x="692" d="M25 754v198h165v336h236v-336h174v-198h-174v-389q0 -127 21.5 -154t119.5 -27q4 0 33 4v-188q-74 -8 -160 -8q-162 0 -206 49t-44 205v508h-165z" />
<glyph unicode="u" horiz-adv-x="1218" d="M33 754v198h370v-592q0 -78 39 -119.5t111 -41.5q123 0 246 143v412h-133v198h370v-753h131v-199h-368v129q-164 -154 -338 -154q-152 0 -223.5 82t-71.5 250v447h-133z" />
<glyph unicode="v" horiz-adv-x="1103" d="M10 754v198h459v-198h-92l180 -455l193 455h-97v198h441v-198h-113l-334 -754h-192l-334 754h-111z" />
<glyph unicode="w" horiz-adv-x="1626" d="M8 754v198h445v-198h-105l174 -447l189 447h-113v198h446v-198h-114l182 -447l184 447h-125v198h449v-198h-107l-319 -754h-164l-217 522l-223 -522h-158l-311 754h-113z" />
<glyph unicode="x" horiz-adv-x="1138" d="M47 0v199h139l254 272l-280 283h-113v198h379v-164l147 -176l136 176v164h376v-198h-137l-241 -271l286 -284h92v-199h-374v188l-142 154l-127 -154v-188h-395z" />
<glyph unicode="y" horiz-adv-x="1161" d="M14 754v198h486v-198h-127l205 -490l213 490h-123v198h477v-198h-117l-467 -981h150v-199h-535v199h150l125 252l-318 729h-119z" />
<glyph unicode="z" horiz-adv-x="1007" d="M74 0v199l544 555h-311v-127h-205v325h809v-198l-542 -555h362v141h203v-340h-860z" />
<glyph unicode="{" horiz-adv-x="1024" d="M162 442v179q6 0 20.5 -1.5t22.5 -1.5q127 0 179 59.5t52 201.5v247q0 129 19.5 196t83.5 105q84 49 290 50h45v-179q-8 0 -24 1t-23 1q-115 0 -150.5 -45t-35.5 -170v-241q0 -147 -41 -216t-162 -98q121 -29 162 -98.5t41 -214.5v-240q0 -127 36 -172t152 -45 q6 0 21.5 1t23.5 1v-176h-63q-190 0 -272 49q-63 37 -83 104.5t-20 194.5v248q0 143 -52 202.5t-179 59.5q-8 0 -22.5 -1t-20.5 -1z" />
<glyph unicode="|" horiz-adv-x="1024" d="M424 -483v2048h178v-2048h-178z" />
<glyph unicode="}" horiz-adv-x="1024" d="M152 -238q8 0 23 -1t22 -1q115 0 150.5 45t35.5 172v240q0 145 42 215t163 98q-123 29 -164 98.5t-41 215.5v241q0 125 -36 170t-148 45q-6 0 -22.5 -1t-24.5 -1v179h45q205 0 288 -50q63 -39 83 -106.5t20 -194.5v-247q0 -141 51 -201t180 -60q6 0 20.5 1.5t22.5 1.5 v-179q-6 0 -20.5 1t-22.5 1q-127 0 -179 -59t-52 -203v-248q0 -127 -19.5 -193.5t-83.5 -105.5q-82 -49 -288 -49h-45v176z" />
<glyph unicode="~" horiz-adv-x="1705" d="M178 434v187q211 143 387 143q119 0 293 -59q14 -4 49 -16.5t50.5 -18.5t46 -15.5t50 -13.5t46 -7t51.5 -3q166 0 379 153v-184q-205 -141 -381 -141q-90 0 -191 35q-20 6 -79.5 27.5t-85 28.5t-71.5 19.5t-84 17.5t-75 5q-162 0 -385 -158z" />
<glyph unicode="&#xa1;" horiz-adv-x="706" d="M170 1317q0 78 51 129t131 51q78 0 131.5 -52t53.5 -128t-53.5 -128t-131.5 -52t-130 51t-52 129zM197 0l55 1030h203l55 -1030h-313z" />
<glyph unicode="&#xa2;" d="M109 479q0 215 133 356.5t333 141.5q51 0 105 -12l76 223h114l-90 -270q51 -31 90 -87l-8 121h137v-327h-161q-37 80 -117 116l-195 -553q33 -8 70 -8q145 0 281 154l141 -127q-190 -231 -420 -232q-49 0 -135 19l-88 -262h-121l108 303q-253 149 -253 444zM346 489 q0 -139 86 -237l184 522q-16 2 -28 2q-104 0 -173 -79t-69 -208z" />
<glyph unicode="&#xa3;" d="M49 -23v250q248 14 248 265q0 66 -25 137h-204v190h165q-43 156 -43 256q0 182 112 286.5t306 104.5q197 0 299.5 -104.5t102.5 -304.5q0 -33 -2 -51h-230v30q0 113 -40 164t-132 51q-76 0 -121 -48t-45 -128q0 -57 56 -256h247v-190h-219q10 -61 11 -107 q0 -123 -68 -258q90 -59 178 -59q172 0 172 186v6h238l4 -47q0 -6 1 -14t1 -14q0 -141 -102.5 -246t-247.5 -105q-174 0 -342 135q-113 -131 -285 -131h-10q-13 2 -25 2z" />
<glyph unicode="&#xa4;" d="M0 522l23 144h100q-2 31 -2 77q0 12 1 25.5t1 24.5h-123l23 143h106q29 276 139.5 402t309.5 126q160 0 229 -137v109h211v-404h-221q-43 211 -201 211q-98 0 -149.5 -73.5t-67.5 -233.5h461l-54 -143h-415q0 -10 -1 -23.5t-1 -26.5q0 -47 2 -77h389l-55 -144h-326 q20 -178 72.5 -252.5t148.5 -74.5q80 0 131 53t60 139h245q-27 -193 -134 -304.5t-302 -111.5q-215 0 -327.5 129t-141.5 422h-131z" />
<glyph unicode="&#xa5;" d="M-16 1247v191h477v-191h-115l205 -385l199 385h-115v191h481v-191h-104l-158 -278h227v-154h-307l-96 -162h403v-153h-409v-310h168v-190h-584v190h168v310h-410v153h406l-92 162h-314v154h224l-158 278h-96z" />
<glyph unicode="&#xa6;" horiz-adv-x="1024" d="M424 -350v758h178v-758h-178zM424 674v758h178v-758h-178z" />
<glyph unicode="&#xa7;" horiz-adv-x="1024" d="M45 793q0 102 71.5 170.5t178.5 68.5q39 0 61 -4q-125 111 -125 234q0 213 322 213h293v-318h-209v131h-102q-90 0 -91 -63q0 -49 80 -131l312 -320q82 -84 119.5 -153.5t37.5 -151.5q0 -111 -64.5 -180.5t-172.5 -69.5q-23 0 -45 2q113 -117 112 -217q0 -236 -315 -235 h-346v323h209v-127h114q104 0 105 78q0 51 -80 135l-320 330q-145 152 -145 285zM272 799q0 -49 80 -135l178 -191q90 -94 158 -94q43 0 67.5 22.5t24.5 61.5q0 47 -82 135l-178 190q-90 94 -158 95q-41 0 -65.5 -22.5t-24.5 -61.5z" />
<glyph unicode="&#xa8;" horiz-adv-x="1024" d="M240 1135v229h204v-229h-204zM580 1135v229h204v-229h-204z" />
<glyph unicode="&#xa9;" horiz-adv-x="1705" d="M113 731q0 299 221 524q211 215 518 215q309 0 526 -217q215 -215 215 -522q0 -313 -213 -520q-225 -221 -528 -221q-301 0 -520 219t-219 522zM223 731q0 -258 186.5 -444.5t444.5 -186.5q256 0 449 189q182 178 182 442t-182 447q-184 184 -449 184q-266 0 -444 -182 q-187 -191 -187 -449zM457 725q0 209 110.5 332t290.5 123q147 0 242.5 -77t105.5 -200h-166q-10 74 -60 114t-130 40q-96 0 -153.5 -85t-57.5 -241q0 -154 58.5 -235.5t162.5 -81.5q80 0 129 44t60 124h165q-8 -133 -106 -216t-254 -83q-182 0 -289.5 118.5t-107.5 323.5z " />
<glyph unicode="&#xaa;" horiz-adv-x="952" d="M41 1141q0 147 103.5 248.5t258.5 101.5q127 0 224 -90v72h278v-138h-100v-389h100v-139h-278v72q-92 -88 -224 -88q-160 0 -261 98t-101 252zM221 1139q0 -88 57.5 -143.5t149.5 -55.5q86 0 145.5 55.5t59.5 143.5t-59.5 144t-145.5 56q-92 0 -149.5 -55t-57.5 -145z " />
<glyph unicode="&#xab;" horiz-adv-x="1107" d="M104 475l258 313h230l-262 -313l262 -311h-230zM537 475l258 313h231l-262 -313l262 -311h-231z" />
<glyph unicode="&#xac;" horiz-adv-x="1705" d="M254 696v166h1198v-502h-166v336h-1032z" />
<glyph unicode="&#xad;" horiz-adv-x="630" d="M61 371v211h508v-211h-508z" />
<glyph unicode="&#xae;" horiz-adv-x="1705" d="M113 731q0 305 223 529q211 211 516 210q313 0 530 -221q211 -215 211 -518q0 -313 -217 -524q-223 -217 -524 -217q-305 0 -524 223q-215 219 -215 518zM223 731q0 -256 183 -442q188 -188 438 -189q266 0 456 185q184 178 185 436q0 268 -180 453q-188 188 -451 188 q-260 0 -440 -180q-191 -195 -191 -451zM551 330v829h319q350 0 351 -225q0 -188 -185 -229l185 -375h-199l-164 346h-129v-346h-178zM729 786h117q100 0 146 30t46 97q0 133 -200 134h-109v-261z" />
<glyph unicode="&#xaf;" horiz-adv-x="1024" d="M236 1176v147h552v-147h-552z" />
<glyph unicode="&#xb0;" horiz-adv-x="673" d="M43 1163q0 125 86 211t209 86q121 0 208 -87t87 -210q0 -121 -87 -208t-210 -87t-208 85t-85 210zM152 1165.5q0 -75.5 55 -131t131 -55.5q78 0 131 55.5t53 131t-54 130t-130 54.5q-78 0 -132 -54.5t-54 -130z" />
<glyph unicode="&#xb1;" horiz-adv-x="1705" d="M254 14v168h1198v-168h-1198zM254 707v165h514v334h170v-334h514v-165h-514v-334h-170v334h-514z" />
<glyph unicode="&#xb2;" horiz-adv-x="722" d="M57 575v119l308 310q135 139 135 217q0 104 -131 104q-82 0 -115 -48t-33 -157v-24h-155q-2 16 -3 43q0 315 308 315q137 0 216 -64.5t79 -170.5q0 -78 -45.5 -141.5t-143.5 -153.5l-237 -219h278v122h156v-252h-617z" />
<glyph unicode="&#xb3;" horiz-adv-x="722" d="M53 848v31h162q2 -186 150 -187q61 0 101 39t40 96q0 66 -46 103t-128 37h-15v106q4 0 11.5 -1t11.5 -1q152 0 152 135q0 55 -34 86t-91 31q-78 0 -110 -46t-32 -155v-8h-159q0 6 -1.5 19.5t-1.5 23.5q0 141 79 220t218 79q137 0 215 -66.5t78 -179.5q0 -152 -135 -186 q70 -16 110 -67.5t40 -127.5q0 -125 -81 -197.5t-222 -72.5q-312 0 -312 289z" />
<glyph unicode="&#xb4;" horiz-adv-x="1024" d="M365 1087l204 349h222l-295 -349h-131z" />
<glyph unicode="&#xb5;" horiz-adv-x="1208" d="M-92 -430l297 1511h229l-125 -635q-12 -57 -12 -104q0 -197 182 -197q125 0 195.5 91.5t109.5 289.5l109 555h225l-145 -739q-18 -96 -19 -133q0 -35 15.5 -50.5t52.5 -15.5q23 0 35 2l-33 -159q-63 -16 -150 -17q-150 0 -149 125v15q-86 -141 -254 -142q-156 0 -235 109 l-99 -506h-229z" />
<glyph unicode="&#xb6;" horiz-adv-x="1024" d="M55 1130q0 156 105.5 252.5t285.5 96.5h523v-99h-117v-1380h-129v1380h-170v-1380h-129v784q-170 6 -269.5 101t-99.5 245z" />
<glyph unicode="&#xb7;" horiz-adv-x="546" d="M90 733q0 78 53.5 129t130.5 51q76 0 129.5 -52t53.5 -128t-53.5 -129t-129.5 -53q-80 0 -132 52t-52 130z" />
<glyph unicode="&#xb8;" horiz-adv-x="1024" d="M287 -315q166 -43 256 -43q109 0 108 75q0 80 -143 80q-6 0 -19.5 -1t-21.5 -1v205h90v-94h16q236 0 236 -193q0 -90 -64.5 -140t-185.5 -50q-113 0 -272 43v119z" />
<glyph unicode="&#xb9;" horiz-adv-x="722" d="M174 575v119h111v623h-103v121h267v-744h110v-119h-385z" />
<glyph unicode="&#xba;" horiz-adv-x="868" d="M39 1140.5q0 147.5 112.5 249t282.5 101.5t281.5 -101.5t111.5 -248.5q0 -145 -111.5 -246.5t-281.5 -101.5t-282.5 100t-112.5 247.5zM223 1141q0 -90 61.5 -147.5t149.5 -57.5t148.5 57.5t60.5 147.5t-60.5 148.5t-148.5 58.5t-149.5 -58.5t-61.5 -148.5z" />
<glyph unicode="&#xbb;" horiz-adv-x="1107" d="M80 164l264 311l-264 313h231l258 -313l-258 -311h-231zM514 164l262 311l-262 313h231l259 -313l-259 -311h-231z" />
<glyph unicode="&#xbc;" horiz-adv-x="1722" d="M166 633v110h106v582h-98v113h254v-695h104v-110h-366zM348 -29l879 1493h145l-880 -1493h-144zM1085 193v102l351 510h149v-512h109v-100h-109v-91h109v-102h-383v102h127v91h-353zM1223 293h215v199q0 63 16 159z" />
<glyph unicode="&#xbd;" horiz-adv-x="1722" d="M166 633v110h106v582h-98v113h254v-695h104v-110h-366zM348 -29l879 1493h145l-880 -1493h-144zM1085 0v111l295 288q129 129 129 203q0 98 -127 98q-78 0 -108.5 -45t-30.5 -145v-25h-149v39q0 295 292 295q129 0 205 -60.5t76 -158.5q0 -72 -43 -131t-137 -145 l-225 -203h266v115h147v-236h-590z" />
<glyph unicode="&#xbe;" horiz-adv-x="1722" d="M51 887v28h154q2 -174 141 -174q59 0 98 37t39 90q0 59 -44 94t-122 35h-14v101q4 0 11.5 -1t9.5 -1q145 0 145 127q0 51 -33 79.5t-86 28.5q-76 0 -105.5 -43t-29.5 -145v-8h-154v41q0 133 75 205.5t208 72.5q131 0 205 -62.5t74 -166.5q0 -139 -127 -174 q66 -14 103.5 -62.5t37.5 -120.5q0 -117 -78 -183.5t-213 -66.5q-295 1 -295 269zM348 -29l879 1493h145l-880 -1493h-144zM1085 193v102l351 510h149v-512h109v-100h-109v-91h109v-102h-383v102h127v91h-353zM1223 293h215v199q0 63 16 159z" />
<glyph unicode="&#xbf;" horiz-adv-x="1218" d="M170 379q0 154 88 259t248 138v258h237v-436h-45q-141 0 -214.5 -59.5t-73.5 -167.5q0 -84 54 -134.5t146 -50.5t147.5 58.5t59.5 163.5h230q-18 -211 -133 -322t-310 -111q-199 0 -316.5 111t-117.5 293zM449 1321q0 76 54 129t130 53q80 0 131 -52t51 -130t-52 -129 t-130 -51t-131 52t-53 128z" />
<glyph unicode="&#xc0;" horiz-adv-x="1402" d="M-6 0v205h117l372 1065h-159v205h755v-205h-170l365 -1065h135v-205h-559v205h158l-90 268h-463l-90 -268h157v-205h-528zM518 678h334l-166 500zM423 1962h222l204 -349h-131z" />
<glyph unicode="&#xc1;" horiz-adv-x="1402" d="M-6 0v205h117l372 1065h-159v205h755v-205h-170l365 -1065h135v-205h-559v205h158l-90 268h-463l-90 -268h157v-205h-528zM518 678h334l-166 500zM555 1613l204 349h222l-295 -349h-131z" />
<glyph unicode="&#xc2;" horiz-adv-x="1402" d="M-6 0v205h117l372 1065h-159v205h755v-205h-170l365 -1065h135v-205h-559v205h158l-90 268h-463l-90 -268h157v-205h-528zM518 678h334l-166 500zM405 1611l188 351h218l188 -351h-131l-166 211l-168 -211h-129z" />
<glyph unicode="&#xc3;" horiz-adv-x="1402" d="M-6 0v205h117l372 1065h-159v205h755v-205h-170l365 -1065h135v-205h-559v205h158l-90 268h-463l-90 -268h157v-205h-528zM518 678h334l-166 500zM401 1648q39 219 192 219q45 0 84 -12l88 -24q33 -8 52 -9q68 0 86 76h100q-23 -117 -71 -172t-128 -55q-33 0 -69 10 l-84 25q-37 10 -64 10q-66 0 -86 -68h-100z" />
<glyph unicode="&#xc4;" horiz-adv-x="1402" d="M-6 0v205h117l372 1065h-159v205h755v-205h-170l365 -1065h135v-205h-559v205h158l-90 268h-463l-90 -268h157v-205h-528zM518 678h334l-166 500zM430 1661v229h204v-229h-204zM770 1661v229h204v-229h-204z" />
<glyph unicode="&#xc5;" horiz-adv-x="1402" d="M-6 0v205h117l372 1065h-159v205h755v-205h-159l354 -1065h135v-205h-559v205h158l-93 268h-460l-90 -268h157v-205h-528zM481 1751q0 92 64.5 156.5t156.5 64.5q90 0 155 -64.5t65 -156.5q0 -90 -64.5 -154.5t-155.5 -64.5q-92 0 -156.5 63.5t-64.5 155.5zM518 678h336 l-168 500zM610 1751q0 -39 27 -65.5t65.5 -26.5t66.5 26.5t28 65.5t-28 66.5t-66.5 27.5t-65.5 -27.5t-27 -66.5z" />
<glyph unicode="&#xc6;" horiz-adv-x="2052" d="M-6 0v205h117l542 1065h-174v205h1467v-402h-230v195h-469v-369h393v-221h-393v-473h463v231h236v-436h-1121v205h156v268h-475l-133 -268h149v-205h-528zM606 678h375v608h-72z" />
<glyph unicode="&#xc7;" horiz-adv-x="1554" d="M66 737q0 340 214 553t537 213q270 0 400 -151l-5 123h220v-492h-220q-45 133 -143 203.5t-235 70.5q-221 0 -357.5 -143t-136.5 -376.5t136 -376t358 -142.5q139 0 233 62.5t162 197.5h256q-59 -233 -235.5 -370.5t-415.5 -137.5q-334 0 -551 217t-217 549zM592 -315 q166 -43 256 -43q109 0 108 75q0 80 -143 80q-6 0 -19.5 -1t-21.5 -1v205h90v-94h16q236 0 236 -193q0 -90 -64.5 -140t-185.5 -50q-113 0 -272 43v119z" />
<glyph unicode="&#xc8;" horiz-adv-x="1280" d="M51 0v205h158v1065h-158v205h1123v-402h-230v195h-471v-369h395v-221h-395v-473h463v231h238v-436h-1123zM362 1962h222l204 -349h-131z" />
<glyph unicode="&#xc9;" horiz-adv-x="1280" d="M51 0v205h158v1065h-158v205h1123v-402h-230v195h-471v-369h395v-221h-395v-473h463v231h238v-436h-1123zM494 1613l204 349h222l-295 -349h-131z" />
<glyph unicode="&#xca;" horiz-adv-x="1280" d="M51 0v205h158v1065h-158v205h1123v-402h-230v195h-471v-369h395v-221h-395v-473h463v231h238v-436h-1123zM344 1611l188 351h218l188 -351h-131l-166 211l-168 -211h-129z" />
<glyph unicode="&#xcb;" horiz-adv-x="1280" d="M51 0v205h158v1065h-158v205h1123v-402h-230v195h-471v-369h395v-221h-395v-473h463v231h238v-436h-1123zM369 1661v229h204v-229h-204zM709 1661v229h204v-229h-204z" />
<glyph unicode="&#xcc;" horiz-adv-x="681" d="M51 0v205h158v1065h-158v205h580v-205h-158v-1065h158v-205h-580zM63 1962h222l204 -349h-131z" />
<glyph unicode="&#xcd;" horiz-adv-x="681" d="M51 0v205h158v1065h-158v205h580v-205h-158v-1065h158v-205h-580zM195 1613l204 349h222l-295 -349h-131z" />
<glyph unicode="&#xce;" horiz-adv-x="681" d="M51 0v205h158v1065h-158v205h580v-205h-158v-1065h158v-205h-580zM45 1611l188 351h218l188 -351h-131l-166 211l-168 -211h-129z" />
<glyph unicode="&#xcf;" horiz-adv-x="681" d="M51 0v205h158v1065h-158v205h580v-205h-158v-1065h158v-205h-580zM70 1661v229h204v-229h-204zM410 1661v229h204v-229h-204z" />
<glyph unicode="&#xd0;" horiz-adv-x="1542" d="M2 668v204h215v398h-156v205h592q406 0 617 -189.5t211 -548t-211 -548t-617 -189.5h-592v205h156v463h-215zM483 205h176q270 0 408.5 136t138.5 396t-138 396.5t-409 136.5h-176v-398h359v-204h-359v-463z" />
<glyph unicode="&#xd1;" horiz-adv-x="1488" d="M51 0v205h158v1065h-158v205h451l526 -963v758h-158v205h566v-205h-158v-1299h-223l-594 1116v-882h155v-205h-565zM444 1648q39 219 192 219q45 0 84 -12l88 -24q33 -8 52 -9q68 0 86 76h100q-23 -117 -71 -172t-128 -55q-33 0 -69 10l-84 25q-37 10 -64 10 q-66 0 -86 -68h-100z" />
<glyph unicode="&#xd2;" horiz-adv-x="1669" d="M61 737q0 326 220.5 546t552.5 220q309 0 516 -186q258 -229 258 -580q0 -305 -203 -524q-223 -242 -571 -242q-332 0 -552.5 221t-220.5 545zM342 737.5q0 -225.5 142.5 -371t349.5 -145.5q211 0 352 145.5t141 370.5q0 227 -142.5 371.5t-350.5 144.5 q-205 0 -348.5 -145t-143.5 -370.5zM557 1962h222l204 -349h-131z" />
<glyph unicode="&#xd3;" horiz-adv-x="1669" d="M61 737q0 326 220.5 546t552.5 220q309 0 516 -186q258 -229 258 -580q0 -305 -203 -524q-223 -242 -571 -242q-332 0 -552.5 221t-220.5 545zM342 737.5q0 -225.5 142.5 -371t349.5 -145.5q211 0 352 145.5t141 370.5q0 227 -142.5 371.5t-350.5 144.5 q-205 0 -348.5 -145t-143.5 -370.5zM689 1613l204 349h222l-295 -349h-131z" />
<glyph unicode="&#xd4;" horiz-adv-x="1669" d="M61 737q0 326 220.5 546t552.5 220q309 0 516 -186q258 -229 258 -580q0 -305 -203 -524q-223 -242 -571 -242q-332 0 -552.5 221t-220.5 545zM342 737.5q0 -225.5 142.5 -371t349.5 -145.5q211 0 352 145.5t141 370.5q0 227 -142.5 371.5t-350.5 144.5 q-205 0 -348.5 -145t-143.5 -370.5zM539 1611l188 351h218l188 -351h-131l-166 211l-168 -211h-129z" />
<glyph unicode="&#xd5;" horiz-adv-x="1669" d="M61 737q0 326 220.5 546t552.5 220q309 0 516 -186q258 -229 258 -580q0 -305 -203 -524q-223 -242 -571 -242q-332 0 -552.5 221t-220.5 545zM342 737.5q0 -225.5 142.5 -371t349.5 -145.5q211 0 352 145.5t141 370.5q0 227 -142.5 371.5t-350.5 144.5 q-205 0 -348.5 -145t-143.5 -370.5zM535 1648q39 219 192 219q45 0 84 -12l88 -24q33 -8 52 -9q68 0 86 76h100q-23 -117 -71 -172t-128 -55q-33 0 -69 10l-84 25q-37 10 -64 10q-66 0 -86 -68h-100z" />
<glyph unicode="&#xd6;" horiz-adv-x="1669" d="M61 737q0 326 220.5 546t552.5 220q309 0 516 -186q258 -229 258 -580q0 -305 -203 -524q-223 -242 -571 -242q-332 0 -552.5 221t-220.5 545zM342 737.5q0 -225.5 142.5 -371t349.5 -145.5q211 0 352 145.5t141 370.5q0 227 -142.5 371.5t-350.5 144.5 q-205 0 -348.5 -145t-143.5 -370.5zM564 1661v229h204v-229h-204zM904 1661v229h204v-229h-204z" />
<glyph unicode="&#xd7;" horiz-adv-x="1705" d="M287 152l458 458l-458 461l116 117l459 -459l461 459l117 -117l-459 -461l459 -458l-117 -119l-461 461l-459 -461z" />
<glyph unicode="&#xd8;" horiz-adv-x="1669" d="M61 737q0 326 220.5 546t552.5 220q248 0 417 -114l138 176h198l-215 -271q236 -231 236 -557q0 -303 -203 -524q-223 -242 -571 -242q-236 0 -418 115l-142 -180h-196l215 274q-232 242 -232 557zM332 737q0 -197 123 -354l635 803q-111 68 -244 67 q-221 0 -367.5 -144.5t-146.5 -371.5zM578 289q125 -68 256 -68q213 0 358 145.5t145 370.5q0 209 -127 353z" />
<glyph unicode="&#xd9;" horiz-adv-x="1521" d="M78 1270v205h577v-205h-155v-733q0 -166 56 -241t206 -75q145 0 202.5 75t57.5 241v733h-156v205h578v-205h-156v-703q0 -137 -14 -225t-64 -166q-129 -205 -448 -205q-291 0 -430 172q-59 74 -79 172.5t-20 251.5v703h-155zM483 1962h222l204 -349h-131z" />
<glyph unicode="&#xda;" horiz-adv-x="1521" d="M78 1270v205h577v-205h-155v-733q0 -166 56 -241t206 -75q145 0 202.5 75t57.5 241v733h-156v205h578v-205h-156v-703q0 -137 -14 -225t-64 -166q-129 -205 -448 -205q-291 0 -430 172q-59 74 -79 172.5t-20 251.5v703h-155zM615 1613l204 349h222l-295 -349h-131z" />
<glyph unicode="&#xdb;" horiz-adv-x="1521" d="M78 1270v205h577v-205h-155v-733q0 -166 56 -241t206 -75q145 0 202.5 75t57.5 241v733h-156v205h578v-205h-156v-703q0 -137 -14 -225t-64 -166q-129 -205 -448 -205q-291 0 -430 172q-59 74 -79 172.5t-20 251.5v703h-155zM465 1611l188 351h218l188 -351h-131 l-166 211l-168 -211h-129z" />
<glyph unicode="&#xdc;" horiz-adv-x="1521" d="M78 1270v205h577v-205h-155v-733q0 -166 56 -241t206 -75q145 0 202.5 75t57.5 241v733h-156v205h578v-205h-156v-703q0 -137 -14 -225t-64 -166q-129 -205 -448 -205q-291 0 -430 172q-59 74 -79 172.5t-20 251.5v703h-155zM490 1661v229h204v-229h-204zM830 1661v229 h204v-229h-204z" />
<glyph unicode="&#xdd;" horiz-adv-x="1343" d="M27 1270v205h538v-205h-116l225 -367l221 367h-133v205h536v-205h-118l-383 -590v-475h180v-205h-627v205h180v475l-387 590h-116zM525 1613l204 349h222l-295 -349h-131z" />
<glyph unicode="&#xde;" horiz-adv-x="1208" d="M51 0v205h158v1065h-158v205h580v-205h-158v-101h82q309 0 467 -110.5t158 -321.5q0 -209 -158 -320.5t-467 -111.5h-82v-100h191v-205h-613zM473 494h82q358 0 358 243q0 246 -358 246h-82v-489z" />
<glyph unicode="&#xdf;" horiz-adv-x="1208" d="M49 0v199h131v774q0 272 95.5 396t336.5 124q197 0 304.5 -95t107.5 -268q0 -188 -190 -280q313 -98 313 -436q0 -199 -97.5 -318t-254.5 -119q-86 0 -162 31l33 185q39 -6 63 -7q174 0 174 244q0 307 -266 307q-27 0 -41 -2v178q96 10 148.5 65.5t52.5 147.5 q0 80 -50.5 130.5t-134.5 50.5q-121 0 -157.5 -76t-36.5 -250v-782h112v-199h-481z" />
<glyph unicode="&#xe0;" horiz-adv-x="1269" d="M53 477q0 211 137.5 355.5t346.5 144.5q168 0 299 -127v102h370v-198h-133v-555h133v-199h-370v102q-121 -125 -299 -125q-211 0 -347.5 140.5t-136.5 359.5zM295 475q0 -125 77 -205t197 -80q115 0 195 79t80 206t-80 207t-195 80q-121 0 -197.5 -80t-76.5 -207z M395 1436h222l204 -349h-131z" />
<glyph unicode="&#xe1;" horiz-adv-x="1269" d="M53 477q0 211 137.5 355.5t346.5 144.5q168 0 299 -127v102h370v-198h-133v-555h133v-199h-370v102q-121 -125 -299 -125q-211 0 -347.5 140.5t-136.5 359.5zM295 475q0 -125 77 -205t197 -80q115 0 195 79t80 206t-80 207t-195 80q-121 0 -197.5 -80t-76.5 -207z M527 1087l204 349h222l-295 -349h-131z" />
<glyph unicode="&#xe2;" horiz-adv-x="1269" d="M53 477q0 211 137.5 355.5t346.5 144.5q168 0 299 -127v102h370v-198h-133v-555h133v-199h-370v102q-121 -125 -299 -125q-211 0 -347.5 140.5t-136.5 359.5zM295 475q0 -125 77 -205t197 -80q115 0 195 79t80 206t-80 207t-195 80q-121 0 -197.5 -80t-76.5 -207z M377 1085l188 351h218l188 -351h-131l-166 211l-168 -211h-129z" />
<glyph unicode="&#xe3;" horiz-adv-x="1269" d="M53 477q0 211 137.5 355.5t346.5 144.5q168 0 299 -127v102h370v-198h-133v-555h133v-199h-370v102q-121 -125 -299 -125q-211 0 -347.5 140.5t-136.5 359.5zM295 475q0 -125 77 -205t197 -80q115 0 195 79t80 206t-80 207t-195 80q-121 0 -197.5 -80t-76.5 -207z M373 1122q39 219 192 219q45 0 84 -12l88 -24q33 -8 52 -9q68 0 86 76h100q-23 -117 -71 -172t-128 -55q-33 0 -69 10l-84 25q-37 10 -64 10q-66 0 -86 -68h-100z" />
<glyph unicode="&#xe4;" horiz-adv-x="1269" d="M53 477q0 211 137.5 355.5t346.5 144.5q168 0 299 -127v102h370v-198h-133v-555h133v-199h-370v102q-121 -125 -299 -125q-211 0 -347.5 140.5t-136.5 359.5zM295 475q0 -125 77 -205t197 -80q115 0 195 79t80 206t-80 207t-195 80q-121 0 -197.5 -80t-76.5 -207z M402 1135v229h204v-229h-204zM742 1135v229h204v-229h-204z" />
<glyph unicode="&#xe5;" horiz-adv-x="1269" d="M53 477q0 211 137.5 355.5t346.5 144.5q168 0 299 -127v102h370v-198h-133v-555h133v-199h-370v102q-121 -125 -299 -125q-211 0 -347.5 140.5t-136.5 359.5zM295 475q0 -125 77 -205t197 -80q115 0 195 79t80 206t-80 207t-195 80q-121 0 -197.5 -80t-76.5 -207z M395 1253.5q0 92.5 63.5 157t155.5 64.5q90 0 156 -64.5t66 -157.5q0 -90 -65.5 -154.5t-156.5 -64.5q-92 0 -155.5 63.5t-63.5 156zM522 1253q0 -39 26.5 -65.5t65.5 -26.5t67 26.5t28 65.5t-28 67t-67 28t-65.5 -28t-26.5 -67z" />
<glyph unicode="&#xe6;" horiz-adv-x="1810" d="M29 291q0 143 117.5 233t299.5 90q158 0 252 -75q0 6 1 19t1 17q0 109 -54 160t-173 51q-158 0 -278 -53l-80 166q156 78 358 78q252 0 389 -148q141 145 350 146q229 0 369.5 -148.5t140.5 -396.5v-24h-790q12 -109 87 -168.5t202 -59.5q168 0 239 103h236 q-41 -145 -167 -225.5t-315 -80.5q-256 0 -389 154q-168 -154 -399 -154q-182 0 -289.5 88.5t-107.5 227.5zM248 303.5q0 -63.5 58.5 -103.5t160.5 -40q96 0 154.5 40t58.5 101q0 59 -58.5 101t-152.5 42q-104 0 -162.5 -38.5t-58.5 -102zM932 573h553q-59 201 -273 201 q-109 0 -182 -53.5t-98 -147.5z" />
<glyph unicode="&#xe7;" horiz-adv-x="1056" d="M51 477q0 219 136.5 360.5t336.5 141.5q152 0 254 -92v65h187v-319h-152q-61 78 -122.5 110.5t-149.5 32.5q-113 0 -182.5 -80t-69.5 -219q0 -125 75.5 -210t190.5 -85q90 0 157.5 36t143.5 122l148 -125q-184 -240 -447 -240q-219 0 -362.5 142.5t-143.5 359.5z M320 -315q166 -43 256 -43q109 0 108 75q0 80 -143 80q-6 0 -19.5 -1t-21.5 -1v205h90v-94h16q236 0 236 -193q0 -90 -64.5 -140t-185.5 -50q-113 0 -272 43v119z" />
<glyph unicode="&#xe8;" horiz-adv-x="1140" d="M53 475q0 219 147.5 359.5t377 140.5t368.5 -148.5t139 -396.5v-24h-788q12 -109 87 -168.5t202 -59.5q168 0 239 103h234q-41 -145 -166 -225.5t-313 -80.5q-240 0 -383.5 139.5t-143.5 360.5zM297 573h553q-59 201 -272 201q-109 0 -182.5 -53.5t-98.5 -147.5z M305 1436h222l204 -349h-131z" />
<glyph unicode="&#xe9;" horiz-adv-x="1140" d="M53 475q0 219 147.5 359.5t377 140.5t368.5 -148.5t139 -396.5v-24h-788q12 -109 87 -168.5t202 -59.5q168 0 239 103h234q-41 -145 -166 -225.5t-313 -80.5q-240 0 -383.5 139.5t-143.5 360.5zM297 573h553q-59 201 -272 201q-109 0 -182.5 -53.5t-98.5 -147.5z M437 1087l204 349h222l-295 -349h-131z" />
<glyph unicode="&#xea;" horiz-adv-x="1140" d="M53 475q0 219 147.5 359.5t377 140.5t368.5 -148.5t139 -396.5v-24h-788q12 -109 87 -168.5t202 -59.5q168 0 239 103h234q-41 -145 -166 -225.5t-313 -80.5q-240 0 -383.5 139.5t-143.5 360.5zM297 573h553q-59 201 -272 201q-109 0 -182.5 -53.5t-98.5 -147.5z M287 1085l188 351h218l188 -351h-131l-166 211l-168 -211h-129z" />
<glyph unicode="&#xeb;" horiz-adv-x="1140" d="M53 475q0 219 147.5 359.5t377 140.5t368.5 -148.5t139 -396.5v-24h-788q12 -109 87 -168.5t202 -59.5q168 0 239 103h234q-41 -145 -166 -225.5t-313 -80.5q-240 0 -383.5 139.5t-143.5 360.5zM297 573h553q-59 201 -272 201q-109 0 -182.5 -53.5t-98.5 -147.5z M312 1135v229h204v-229h-204zM652 1135v229h204v-229h-204z" />
<glyph unicode="&#xec;" horiz-adv-x="598" d="M45 0v199h145v555h-143v198h381v-753h137v-199h-520zM-11 1436h222l204 -349h-131z" />
<glyph unicode="&#xed;" horiz-adv-x="598" d="M45 0v199h145v555h-143v198h381v-753h137v-199h-520zM121 1087l204 349h222l-295 -349h-131z" />
<glyph unicode="&#xee;" horiz-adv-x="598" d="M45 0v199h145v555h-143v198h381v-753h137v-199h-520zM-29 1085l188 351h218l188 -351h-131l-166 211l-168 -211h-129z" />
<glyph unicode="&#xef;" horiz-adv-x="598" d="M45 0v199h145v555h-143v198h381v-753h137v-199h-520zM-4 1135v229h204v-229h-204zM336 1135v229h204v-229h-204z" />
<glyph unicode="&#xf0;" horiz-adv-x="1157" d="M49 469q0 207 146.5 351.5t349.5 144.5q41 0 108 -11l-133 174l-348 -67l-37 149l281 56l-150 209h234l129 -164l297 59l37 -149l-228 -50l176 -229q100 -129 148.5 -229.5t48.5 -231.5q0 -221 -150.5 -362.5t-380 -141.5t-379 141.5t-149.5 350.5zM297 477 q0 -129 82 -211t198.5 -82t198.5 82t82 211t-81 212t-199 83q-117 0 -199 -83t-82 -212z" />
<glyph unicode="&#xf1;" horiz-adv-x="1224" d="M57 0v199h133v555h-133v198h371v-129q162 154 336 154q297 0 297 -332v-446h133v-199h-504v199h133v393q0 78 -39 120t-110 42q-125 0 -246 -144v-411h133v-199h-504zM332 1122q39 219 192 219q45 0 84 -12l88 -24q33 -8 52 -9q68 0 86 76h100q-23 -117 -71 -172 t-128 -55q-33 0 -69 10l-84 25q-37 10 -64 10q-66 0 -86 -68h-100z" />
<glyph unicode="&#xf2;" horiz-adv-x="1157" d="M51 477q0 209 149.5 354.5t377 145.5t377 -144.5t149.5 -355.5q0 -209 -149.5 -353t-376.5 -144q-225 0 -376 143t-151 354zM297 477q0 -127 82 -210t198.5 -83t198.5 82t82 211t-81 212t-199.5 83t-199.5 -83t-81 -212zM301 1436h222l204 -349h-131z" />
<glyph unicode="&#xf3;" horiz-adv-x="1157" d="M51 477q0 209 149.5 354.5t377 145.5t377 -144.5t149.5 -355.5q0 -209 -149.5 -353t-376.5 -144q-225 0 -376 143t-151 354zM297 477q0 -127 82 -210t198.5 -83t198.5 82t82 211t-81 212t-199.5 83t-199.5 -83t-81 -212zM433 1087l204 349h222l-295 -349h-131z" />
<glyph unicode="&#xf4;" horiz-adv-x="1157" d="M51 477q0 209 149.5 354.5t377 145.5t377 -144.5t149.5 -355.5q0 -209 -149.5 -353t-376.5 -144q-225 0 -376 143t-151 354zM297 477q0 -127 82 -210t198.5 -83t198.5 82t82 211t-81 212t-199.5 83t-199.5 -83t-81 -212zM283 1085l188 351h218l188 -351h-131l-166 211 l-168 -211h-129z" />
<glyph unicode="&#xf5;" horiz-adv-x="1157" d="M51 477q0 209 149.5 354.5t377 145.5t377 -144.5t149.5 -355.5q0 -209 -149.5 -353t-376.5 -144q-225 0 -376 143t-151 354zM297 477q0 -127 82 -210t198.5 -83t198.5 82t82 211t-81 212t-199.5 83t-199.5 -83t-81 -212zM279 1122q39 219 192 219q45 0 84 -12l88 -24 q33 -8 52 -9q68 0 86 76h100q-23 -117 -71 -172t-128 -55q-33 0 -69 10l-84 25q-37 10 -64 10q-66 0 -86 -68h-100z" />
<glyph unicode="&#xf6;" horiz-adv-x="1157" d="M51 477q0 209 149.5 354.5t377 145.5t377 -144.5t149.5 -355.5q0 -209 -149.5 -353t-376.5 -144q-225 0 -376 143t-151 354zM297 477q0 -127 82 -210t198.5 -83t198.5 82t82 211t-81 212t-199.5 83t-199.5 -83t-81 -212zM308 1135v229h204v-229h-204zM648 1135v229h204 v-229h-204z" />
<glyph unicode="&#xf7;" horiz-adv-x="1705" d="M254 528v166h1198v-166h-1198zM717 229.5q0 57.5 41 97.5t96 40q57 0 97 -40t40 -98q0 -55 -40 -95t-97 -40t-97 39t-40 96.5zM717 989.5q0 57.5 41 98t96 40.5q57 0 97 -40.5t40 -98.5q0 -55 -40 -95t-97 -40t-97 39t-40 96.5z" />
<glyph unicode="&#xf8;" horiz-adv-x="1138" d="M6 -147l205 262q-152 147 -152 362q0 211 145.5 355.5t364.5 144.5q152 0 262 -68l154 193h154l-211 -266q152 -156 151 -359q0 -211 -145.5 -354t-364.5 -143q-166 0 -262 63l-147 -190h-154zM303 477q0 -94 53 -184l346 438q-43 39 -133 39q-113 0 -189.5 -82 t-76.5 -211zM434 219q74 -35 135 -35q111 0 188 82t77 211q0 100 -54 182z" />
<glyph unicode="&#xf9;" horiz-adv-x="1218" d="M33 754v198h370v-592q0 -78 39 -119.5t111 -41.5q123 0 246 143v412h-133v198h370v-753h131v-199h-368v129q-164 -154 -338 -154q-152 0 -223.5 82t-71.5 250v447h-133zM307 1436h222l204 -349h-131z" />
<glyph unicode="&#xfa;" horiz-adv-x="1218" d="M33 754v198h370v-592q0 -78 39 -119.5t111 -41.5q123 0 246 143v412h-133v198h370v-753h131v-199h-368v129q-164 -154 -338 -154q-152 0 -223.5 82t-71.5 250v447h-133zM439 1087l204 349h222l-295 -349h-131z" />
<glyph unicode="&#xfb;" horiz-adv-x="1218" d="M33 754v198h370v-592q0 -78 39 -119.5t111 -41.5q123 0 246 143v412h-133v198h370v-753h131v-199h-368v129q-164 -154 -338 -154q-152 0 -223.5 82t-71.5 250v447h-133zM289 1085l188 351h218l188 -351h-131l-166 211l-168 -211h-129z" />
<glyph unicode="&#xfc;" horiz-adv-x="1218" d="M33 754v198h370v-592q0 -78 39 -119.5t111 -41.5q123 0 246 143v412h-133v198h370v-753h131v-199h-368v129q-164 -154 -338 -154q-152 0 -223.5 82t-71.5 250v447h-133zM314 1135v229h204v-229h-204zM654 1135v229h204v-229h-204z" />
<glyph unicode="&#xfd;" horiz-adv-x="1161" d="M14 754v198h486v-198h-127l205 -490l213 490h-123v198h477v-198h-117l-467 -981h150v-199h-535v199h150l125 252l-318 729h-119zM435 1087l204 349h222l-295 -349h-131z" />
<glyph unicode="&#xfe;" horiz-adv-x="1265" d="M57 -227h133v1503h-133v199h371v-625q131 127 299 127q209 0 346 -144.5t137 -355.5q0 -219 -135 -359.5t-348 -140.5q-168 0 -299 113v-317h141v-199h-512v199zM420 475q0 -125 79 -205t195.5 -80t195.5 79t79 206t-80 207t-194.5 80t-194.5 -80t-80 -207z" />
<glyph unicode="&#xff;" horiz-adv-x="1161" d="M14 754v198h486v-198h-127l205 -490l213 490h-123v198h477v-198h-117l-467 -981h150v-199h-535v199h150l125 252l-318 729h-119zM310 1135v229h204v-229h-204zM650 1135v229h204v-229h-204z" />
<glyph unicode="&#x131;" horiz-adv-x="598" d="M45 0v199h145v555h-143v198h381v-753h137v-199h-520z" />
<glyph unicode="&#x152;" horiz-adv-x="2095" d="M61 737q0 217 91.5 382t259.5 259q102 57 227 77t307 20h1043v-402h-230v195h-469v-369h393v-221h-393v-473h463v231h236v-436h-1041q-186 0 -308 17.5t-230 76.5q-162 90 -255.5 260t-93.5 383zM334 739q0 -244 138 -389t370 -145q115 0 148.5 41t33.5 157v756 q0 68 -39 90.5t-149 22.5q-238 0 -370 -139.5t-132 -393.5z" />
<glyph unicode="&#x153;" horiz-adv-x="1970" d="M59 477q0 211 147.5 355.5t371.5 144.5q268 0 395 -211q137 209 397 209q229 0 368.5 -148.5t139.5 -396.5v-24h-788q12 -109 86.5 -168.5t201.5 -59.5q168 0 240 103h233q-43 -145 -165.5 -225.5t-313.5 -80.5q-240 0 -399 201q-150 -197 -395 -196q-223 0 -371 143 t-148 354zM307 477q0 -129 79 -211t191.5 -82t190.5 82t78 211t-77 211t-191.5 82t-192.5 -82t-78 -211zM1090 573h552q-59 201 -272 201q-109 0 -182 -53.5t-98 -147.5z" />
<glyph unicode="&#x178;" horiz-adv-x="1343" d="M27 1270v205h538v-205h-116l225 -367l221 367h-133v205h536v-205h-118l-383 -590v-475h180v-205h-627v205h180v475l-387 590h-116zM400 1661v229h204v-229h-204zM740 1661v229h204v-229h-204z" />
<glyph unicode="&#x2c6;" horiz-adv-x="1024" d="M215 1085l188 351h218l188 -351h-131l-166 211l-168 -211h-129z" />
<glyph unicode="&#x2dc;" horiz-adv-x="1024" d="M211 1122q39 219 192 219q45 0 84 -12l88 -24q33 -8 52 -9q68 0 86 76h100q-23 -117 -71 -172t-128 -55q-33 0 -69 10l-84 25q-37 10 -64 10q-66 0 -86 -68h-100z" />
<glyph unicode="&#x3bc;" horiz-adv-x="1208" d="M-92 -430l297 1511h229l-125 -635q-12 -57 -12 -104q0 -197 182 -197q125 0 195.5 91.5t109.5 289.5l109 555h225l-145 -739q-18 -96 -19 -133q0 -35 15.5 -50.5t52.5 -15.5q23 0 35 2l-33 -159q-63 -16 -150 -17q-150 0 -149 125v15q-86 -141 -254 -142q-156 0 -235 109 l-99 -506h-229z" />
<glyph unicode="&#x2000;" horiz-adv-x="985" />
<glyph unicode="&#x2001;" horiz-adv-x="1972" />
<glyph unicode="&#x2002;" horiz-adv-x="985" />
<glyph unicode="&#x2003;" horiz-adv-x="1972" />
<glyph unicode="&#x2004;" horiz-adv-x="657" />
<glyph unicode="&#x2005;" horiz-adv-x="491" />
<glyph unicode="&#x2006;" horiz-adv-x="327" />
<glyph unicode="&#x2007;" horiz-adv-x="327" />
<glyph unicode="&#x2008;" horiz-adv-x="245" />
<glyph unicode="&#x2009;" horiz-adv-x="393" />
<glyph unicode="&#x200a;" horiz-adv-x="108" />
<glyph unicode="&#x2010;" horiz-adv-x="630" d="M61 371v211h508v-211h-508z" />
<glyph unicode="&#x2011;" horiz-adv-x="630" d="M61 371v211h508v-211h-508z" />
<glyph unicode="&#x2012;" horiz-adv-x="630" d="M61 371v211h508v-211h-508z" />
<glyph unicode="&#x2013;" horiz-adv-x="1024" d="M0 397v158h1024v-158h-1024z" />
<glyph unicode="&#x2014;" horiz-adv-x="2048" d="M0 397v158h2048v-158h-2048z" />
<glyph unicode="&#x2018;" horiz-adv-x="460" d="M35 1049l131 426h258l-143 -426h-246z" />
<glyph unicode="&#x2019;" horiz-adv-x="460" d="M35 1049l131 426h258l-143 -426h-246z" />
<glyph unicode="&#x201a;" horiz-adv-x="460" d="M35 -186l131 426h258l-143 -426h-246z" />
<glyph unicode="&#x201c;" horiz-adv-x="907" d="M33 1049l131 426h258l-143 -426h-246zM481 1049l131 426h258l-143 -426h-246z" />
<glyph unicode="&#x201d;" horiz-adv-x="907" d="M35 1049l131 426h258l-143 -426h-246zM481 1049l131 426h260l-145 -426h-246z" />
<glyph unicode="&#x201e;" horiz-adv-x="907" d="M35 -186l131 426h258l-143 -426h-246zM481 -186l131 426h260l-145 -426h-246z" />
<glyph unicode="&#x2022;" horiz-adv-x="1208" d="M307 762q0 123 87 209t210 86q121 0 208 -86t87 -209q0 -121 -87 -209t-210 -88t-209 87t-86 210z" />
<glyph unicode="&#x2026;" horiz-adv-x="2048" d="M158 158q0 78 53 129t131 51q76 0 129 -52.5t53 -128t-53 -129t-129 -53.5q-80 0 -132 52.5t-52 130.5zM840 158q0 78 53 129t131 51q76 0 129 -52.5t53 -128t-53 -129t-129 -53.5q-80 0 -132 52.5t-52 130.5zM1524 158q0 78 53 129t131 51q76 0 129 -52.5t53 -128 t-53 -129t-129 -53.5q-80 0 -132 52.5t-52 130.5z" />
<glyph unicode="&#x202f;" horiz-adv-x="393" />
<glyph unicode="&#x2039;" horiz-adv-x="673" d="M104 475l258 313h230l-262 -313l262 -311h-230z" />
<glyph unicode="&#x203a;" horiz-adv-x="673" d="M80 164l264 311l-264 313h231l258 -313l-258 -311h-231z" />
<glyph unicode="&#x205f;" horiz-adv-x="491" />
<glyph unicode="&#x20ac;" d="M0 522l23 144h100q-2 31 -2 77q0 12 1 25.5t1 24.5h-123l23 143h106q29 276 139.5 402t309.5 126q160 0 229 -137v109h211v-404h-221q-43 211 -201 211q-98 0 -149.5 -73.5t-67.5 -233.5h461l-54 -143h-415q0 -10 -1 -23.5t-1 -26.5q0 -47 2 -77h389l-55 -144h-326 q20 -178 72.5 -252.5t148.5 -74.5q80 0 131 53t60 139h245q-27 -193 -134 -304.5t-302 -111.5q-215 0 -327.5 129t-141.5 422h-131z" />
<glyph unicode="&#x2122;" horiz-adv-x="1705" d="M225 1366v94h467v-94h-168v-448h-129v448h-170zM809 918v542h170l141 -360l133 360h170v-542h-114v428l-160 -428h-59l-166 428v-428h-115z" />
<glyph unicode="&#xe000;" horiz-adv-x="950" d="M0 950h950v-950h-950v950z" />
<glyph unicode="&#xfb01;" horiz-adv-x="1265" d="M45 0v199h158v555h-158v198h158v129q0 123 11 191.5t49 118t104.5 67t183.5 17.5q37 0 65 -2v-189h-53q-82 0 -103.5 -30.5t-21.5 -118.5v-183h166v-198h-166v-555h166v-199h-559zM715 0v199h143v555h-143v198h381v-753h139v-199h-520zM780 1108v252h316v-252h-316z" />
<glyph unicode="&#xfb02;" horiz-adv-x="1261" d="M45 0v199h158v555h-158v198h158v129q0 123 11 191.5t49 118t104.5 67t183.5 17.5q37 0 65 -2v-189h-53q-82 0 -103.5 -30.5t-21.5 -118.5v-183h166v-198h-166v-555h166v-199h-559zM715 0v199h143v1077h-143v199h381v-1276h139v-199h-520z" />
<glyph unicode="&#xfb03;" horiz-adv-x="1933" d="M1380 0v199h145v555h-143v198h381v-753h137v-199h-520zM1448 1108v252h315v-252h-315zM713 0v199h158v555h-158v198h158v129q0 123 11 191.5t49 118t104.5 67t183.5 17.5q37 0 65 -2v-189h-53q-82 0 -103.5 -30.5t-21.5 -118.5v-183h166v-198h-166v-555h166v-199h-559z M45 0v199h158v555h-158v198h158v129q0 123 11 191.5t49 118t104.5 67t183.5 17.5q37 0 65 -2v-189h-53q-82 0 -103.5 -30.5t-21.5 -118.5v-183h166v-198h-166v-555h166v-199h-559z" />
<glyph unicode="&#xfb04;" horiz-adv-x="1927" d="M1376 0v199h145v1077h-143v199h379v-1276h139v-199h-520zM713 0v199h158v555h-158v198h158v129q0 123 11 191.5t49 118t104.5 67t183.5 17.5q37 0 65 -2v-189h-53q-82 0 -103.5 -30.5t-21.5 -118.5v-183h166v-198h-166v-555h166v-199h-559zM45 0v199h158v555h-158v198 h158v129q0 123 11 191.5t49 118t104.5 67t183.5 17.5q37 0 65 -2v-189h-53q-82 0 -103.5 -30.5t-21.5 -118.5v-183h166v-198h-166v-555h166v-199h-559z" />
</font>
</defs>
</svg>
